{"glyphs":{":":{"x_min":0,"x_max":317,"ha":317,"o":"m 58 83 q 57 92 57 97 q 57 117 65 141 q 78 174 106 194 q 134 213 169 213 q 197 213 224 198 q 264 175 276 134 q 279 121 280 115 q 281 109 281 97 q 281 61 262 34 q 242 6 205 -8 q 187 -15 166 -15 q 94 -15 64 58 z m 58 417 q 57 426 57 431 q 57 451 65 475 q 78 508 106 528 q 134 547 169 547 q 197 547 224 532 q 264 509 276 468 q 279 455 280 449 q 281 443 281 431 q 281 395 262 368 q 243 341 205 327 q 184 319 165 319 q 133 319 106 338 q 78 358 64 392 z"},"$":{"x_min":0,"x_max":771,"ha":771,"o":"m 322 236 q 308 233 297 225 q 272 210 260 189 q 248 168 248 144 q 248 105 281 76 q 300 59 332 48 q 343 45 358 42 q 374 40 386 40 q 440 40 476 71 q 512 102 512 146 q 512 194 478 226 q 439 263 349 291 l 345 292 l 265 314 q 217 327 194 336 q 170 345 149 356 q 88 389 65 425 q 42 461 42 519 q 42 562 54 594 q 66 627 96 661 q 164 742 310 742 l 327 741 l 325 778 l 314 892 l 388 860 l 385 729 l 439 713 q 473 703 498 698 q 522 693 543 693 q 583 693 627 721 l 645 734 q 648 727 650 716 q 652 706 653 701 q 653 694 654 686 q 655 677 655 672 q 655 656 653 647 q 651 638 651 634 q 640 581 607 551 q 574 521 531 521 q 494 521 459 543 q 446 552 432 566 q 419 579 399 608 q 373 647 344 666 q 315 686 290 686 q 260 686 242 662 q 225 639 225 621 q 225 577 327 532 q 351 522 400 506 q 483 479 494 476 q 738 402 738 248 q 738 205 716 150 q 690 87 639 49 q 588 11 501 -8 q 481 -13 462 -16 q 444 -20 426 -20 l 397 -21 l 397 -94 q 397 -118 400 -137 q 400 -139 409 -178 l 342 -142 l 345 -20 l 305 -17 q 237 -9 192 6 q 146 21 110 45 q 73 69 54 101 q 36 133 36 166 q 36 228 91 268 q 127 294 207 294 q 280 294 322 236 z"},"?":{"x_min":0,"x_max":641,"ha":641,"o":"m 40 737 q 85 708 133 708 q 160 708 180 712 q 200 716 211 718 q 254 727 279 730 q 304 732 342 732 q 355 732 362 732 q 388 732 402 731 q 417 730 448 723 q 531 703 567 674 q 603 646 610 598 q 612 582 612 574 q 612 533 580 500 q 548 468 475 438 l 465 434 l 397 409 l 365 395 q 291 362 262 330 q 232 297 232 247 q 203 279 203 323 q 203 349 213 375 q 220 395 237 416 q 254 436 283 458 q 372 527 372 586 q 372 605 362 628 q 344 669 302 669 q 280 669 263 654 q 259 650 256 647 q 248 638 241 625 l 213 570 q 211 565 207 558 q 203 552 197 544 q 164 499 125 499 q 89 499 63 536 q 44 563 37 595 q 30 627 30 674 q 30 692 35 717 z m 134 83 q 133 92 133 97 q 133 118 144 146 q 154 175 182 194 q 210 213 245 213 q 273 213 300 198 q 340 175 352 134 q 357 118 357 97 q 357 61 338 34 q 318 6 281 -8 q 263 -15 242 -15 q 209 -15 182 4 q 154 23 141 58 q 136 68 134 83 z"},"a":{"x_min":0,"x_max":661,"ha":661,"o":"m 404 313 l 403 372 l 403 381 l 401 421 l 399 457 q 398 474 387 485 q 376 496 362 496 q 355 496 349 493 q 332 485 322 476 q 313 468 284 435 l 269 421 q 230 390 194 390 q 187 391 183 391 q 138 395 112 424 q 85 454 85 501 q 85 508 85 515 q 86 521 90 540 l 99 567 q 139 528 204 528 q 216 528 232 530 q 247 531 257 532 l 286 536 q 312 541 336 544 q 359 547 380 547 q 494 547 540 488 q 587 429 587 296 l 586 265 q 586 223 584 194 q 582 165 583 156 q 583 93 596 64 q 609 35 641 15 l 613 -23 q 582 -7 544 0 q 506 6 448 6 l 416 4 l 405 3 l 348 -4 l 319 -7 q 305 -7 299 -7 q 256 -7 238 -6 q 220 -4 196 2 q 129 21 91 56 q 67 79 54 102 q 40 124 34 151 q 28 178 28 203 q 28 300 135 349 q 169 365 219 369 q 226 369 236 370 q 246 371 255 371 q 292 371 322 360 q 352 350 388 325 z m 387 191 q 387 225 380 245 q 374 265 361 278 q 341 298 315 298 q 282 298 265 267 q 255 249 250 232 q 245 214 245 183 q 244 174 244 166 q 244 158 244 154 q 244 138 245 132 q 250 89 269 65 q 288 41 314 41 q 349 41 368 74 q 387 107 387 191 z"},"L":{"x_min":0,"x_max":725,"ha":725,"o":"m 4 688 l 27 737 l 62 729 q 159 709 224 709 q 270 709 304 716 q 338 723 373 738 l 401 691 q 365 663 350 625 q 332 578 332 483 l 330 455 l 330 448 l 330 394 l 330 382 l 329 334 l 330 273 q 330 245 332 228 q 333 212 338 179 q 343 146 348 130 q 352 114 363 100 q 384 72 408 60 q 432 49 464 49 q 511 49 542 79 q 573 109 573 150 q 573 164 569 176 q 562 199 549 214 q 536 230 516 237 q 496 244 481 244 q 448 244 434 215 q 414 228 403 250 q 392 271 389 305 q 389 319 390 328 q 391 336 397 351 q 413 393 450 418 q 487 442 540 442 q 547 442 555 442 q 567 440 572 440 q 669 427 707 325 q 716 301 720 273 q 725 245 725 220 q 725 160 703 117 q 681 74 635 35 q 602 6 558 -8 q 514 -23 455 -23 q 421 -23 406 -22 q 390 -20 359 -15 l 348 -13 l 275 -1 q 216 10 173 10 q 146 10 136 8 q 127 7 100 2 q 73 -4 42 -16 l 6 41 q 45 55 61 84 q 77 112 92 197 q 96 221 98 251 q 101 281 101 329 l 102 358 l 102 368 l 101 427 l 100 467 l 100 476 l 98 489 q 88 565 77 594 q 66 624 48 648 q 30 672 4 688 z"},"3":{"x_min":0,"x_max":746,"ha":746,"o":"m 651 734 l 680 679 l 646 649 l 626 632 l 465 488 l 411 440 l 438 440 q 501 440 532 434 q 564 429 600 413 l 627 400 q 675 373 699 340 q 723 307 733 254 q 736 239 736 222 q 736 146 675 84 q 609 17 491 -8 q 460 -15 434 -18 q 408 -21 377 -21 q 337 -21 284 -15 q 205 -6 164 10 q 124 26 92 60 q 39 116 39 175 q 39 205 54 237 q 90 314 172 314 q 194 314 206 312 q 253 306 293 281 q 245 245 245 172 q 245 114 275 82 q 305 50 351 50 q 361 50 366 51 q 417 57 440 96 q 462 134 462 218 q 462 266 450 294 q 439 321 412 340 q 386 360 352 360 q 324 360 291 347 l 272 338 l 237 382 l 259 403 l 282 425 l 307 448 l 329 468 l 340 477 l 378 509 l 424 551 l 468 595 q 467 598 459 596 q 451 594 425 583 l 403 575 q 355 560 316 560 q 277 560 230 575 l 209 582 q 204 584 194 584 q 186 584 182 583 q 157 577 157 554 q 157 544 163 535 q 175 516 198 516 q 209 516 217 521 l 211 499 q 200 470 176 452 q 153 435 126 435 q 93 435 64 461 q 20 500 20 580 q 20 674 120 720 q 138 728 165 731 q 192 734 244 734 q 269 734 322 726 l 354 721 l 379 717 l 431 707 l 437 706 q 447 704 464 703 q 480 702 512 702 q 557 702 588 709 q 619 716 651 734 z"},";":{"x_min":0,"x_max":328,"ha":328,"o":"m 58 417 q 57 426 57 431 q 57 451 65 475 q 78 508 106 528 q 134 547 169 547 q 197 547 224 532 q 264 509 276 468 q 279 455 280 449 q 281 443 281 431 q 281 395 262 368 q 243 341 205 327 q 184 319 165 319 q 133 319 106 338 q 78 358 64 392 z m 136 -140 q 147 -133 149 -131 q 154 -127 160 -118 q 175 -95 175 -76 q 175 -40 129 -14 q 97 4 83 20 q 69 36 62 58 q 55 80 55 97 q 55 119 64 139 q 80 173 106 190 q 133 208 167 208 q 221 208 256 170 q 292 131 292 69 q 292 25 272 -24 q 243 -96 165 -130 z"},"J":{"x_min":0,"x_max":607,"ha":607,"o":"m 106 413 q 146 413 175 394 q 242 353 242 283 q 242 226 198 151 l 179 121 q 172 110 172 98 q 172 85 179 70 q 192 38 227 38 q 245 38 260 50 q 276 63 284 82 q 293 100 293 133 l 295 167 l 296 178 l 296 204 l 297 248 l 297 295 l 297 316 l 297 333 l 294 386 l 292 446 q 292 477 290 496 q 288 515 284 538 q 277 587 266 612 q 256 637 225 679 l 210 699 l 231 736 l 264 726 q 296 717 332 711 q 368 705 398 705 q 461 705 498 712 q 534 719 569 737 l 600 695 q 583 677 568 654 q 541 612 528 554 q 514 496 514 410 l 514 381 l 515 369 l 517 319 l 517 302 l 518 258 l 518 252 l 522 211 q 527 153 563 127 q 557 114 552 107 q 551 105 538 88 q 521 67 498 50 q 476 32 439 13 q 417 2 391 -6 q 365 -15 337 -20 l 301 -25 q 287 -25 276 -25 q 266 -25 259 -25 q 243 -25 226 -24 q 208 -23 192 -20 q 149 -13 128 -6 q 106 2 85 17 q 33 52 14 94 q 0 125 0 157 q 0 195 24 234 l 34 248 l 43 260 l 55 274 l 69 291 q 111 346 111 383 q 111 395 106 413 z"},"V":{"x_min":0,"x_max":725,"ha":725,"o":"m -22 693 l 6 739 l 30 734 q 62 727 92 725 q 123 723 155 723 l 210 723 q 244 723 276 728 q 308 732 354 742 l 370 700 q 341 689 327 668 q 313 646 313 609 q 313 564 337 484 l 362 401 l 395 292 l 412 238 l 423 200 l 439 150 q 454 192 463 228 l 466 240 l 473 274 l 484 321 l 494 366 l 498 382 l 511 444 q 520 484 523 510 q 526 535 526 585 l 526 608 l 526 613 q 526 635 514 656 q 501 676 479 689 l 457 699 l 480 739 q 503 731 522 726 q 540 722 556 722 q 577 722 587 722 q 603 722 610 722 q 643 722 664 724 q 686 725 716 738 l 747 697 q 698 673 668 628 q 639 583 597 462 q 567 378 553 303 q 530 171 530 129 q 530 109 533 98 q 536 87 544 70 q 557 47 575 32 l 554 -16 q 503 -2 472 4 q 440 10 394 10 l 319 10 q 268 10 242 5 q 217 0 182 -15 l 160 32 q 180 53 188 75 q 197 97 197 129 q 197 162 187 205 l 179 238 l 166 282 l 155 322 l 144 357 l 136 381 l 130 401 l 106 465 l 91 507 l 80 537 l 67 570 q 42 629 25 652 q 8 675 -22 693 z"},"7":{"x_min":0,"x_max":746,"ha":746,"o":"m 628 738 l 662 710 l 631 663 l 593 606 l 588 599 q 574 575 558 539 q 543 503 529 460 l 520 431 l 507 387 q 497 352 492 332 q 487 311 484 290 q 482 270 481 250 q 480 230 480 209 q 480 153 494 120 q 507 86 540 51 l 558 32 l 526 -15 q 486 -1 444 6 q 402 13 348 13 q 249 13 166 -17 l 138 22 q 230 125 306 241 q 386 363 479 549 l 507 607 l 486 591 l 442 566 q 404 548 379 544 q 354 541 283 541 l 246 547 q 237 549 230 540 q 224 532 224 512 q 224 491 249 476 q 263 470 276 470 q 283 470 287 471 q 275 443 253 426 q 220 399 177 399 q 84 399 48 487 q 36 514 36 547 q 36 570 42 594 q 64 675 142 709 q 161 717 177 721 q 193 725 213 725 q 232 725 278 720 q 323 714 368 710 q 413 706 432 706 q 518 706 544 710 q 571 713 612 731 z"},"S":{"x_min":0,"x_max":778,"ha":778,"o":"m 329 236 q 315 233 304 225 q 279 210 267 189 q 255 168 255 144 q 255 105 288 76 q 307 59 339 48 q 350 45 366 42 q 381 40 393 40 q 447 40 483 71 q 519 102 519 146 q 519 194 485 226 q 446 263 356 291 l 352 292 l 272 314 q 224 327 200 336 q 177 345 156 356 q 95 389 72 425 q 49 461 49 519 q 49 562 61 594 q 73 627 103 661 q 139 703 196 722 q 252 741 335 741 q 358 741 395 730 q 409 726 446 713 q 505 692 544 692 q 588 692 634 721 l 652 734 q 655 727 657 716 q 659 706 660 701 q 660 694 661 686 q 662 677 662 672 q 662 656 660 647 q 658 638 658 634 q 647 581 614 551 q 581 521 538 521 q 501 521 466 543 q 453 552 440 566 q 426 579 406 608 q 380 647 351 666 q 322 686 297 686 q 267 686 250 662 q 232 639 232 621 q 232 577 334 532 q 358 522 407 506 q 490 479 501 476 q 745 402 745 248 q 745 205 723 150 q 690 70 617 27 q 537 -21 412 -21 q 389 -21 377 -21 q 368 -21 363 -21 q 341 -21 320 -18 q 248 -9 200 6 q 152 22 116 46 q 80 69 62 101 q 43 133 43 166 q 43 228 98 268 q 134 294 214 294 q 287 294 329 236 z"},"Z":{"x_min":0,"x_max":824,"ha":824,"o":"m 22 32 q 37 45 44 52 q 55 63 64 74 l 92 115 l 102 130 l 119 155 l 122 159 l 146 197 l 186 254 l 191 261 l 226 312 l 267 373 l 298 422 l 302 428 l 327 473 l 335 487 l 352 515 l 361 531 q 370 550 375 565 q 380 580 381 588 q 382 597 382 602 q 382 608 382 610 q 382 670 330 670 q 321 670 304 666 q 288 662 272 644 q 255 626 242 591 q 237 576 235 562 q 233 547 233 510 l 232 486 l 202 505 q 157 529 112 543 q 66 557 23 557 q 26 581 38 603 q 51 625 80 656 q 114 694 174 717 q 203 728 244 732 q 285 735 358 735 l 382 732 l 453 718 l 488 711 q 547 702 593 702 q 673 702 742 732 l 768 695 l 749 671 l 737 656 l 710 624 l 705 618 l 703 615 l 665 559 l 663 555 l 623 501 l 617 491 l 584 444 l 567 420 l 544 386 l 506 327 l 504 323 l 472 266 l 459 243 l 436 204 q 406 151 406 127 q 406 117 411 102 q 429 54 487 54 q 494 54 508 56 q 546 62 572 97 q 594 126 598 146 q 603 166 603 215 q 603 249 565 307 l 552 326 q 580 337 618 337 q 626 337 634 337 q 642 337 653 335 q 720 325 756 292 q 792 260 801 201 q 803 183 803 175 q 803 95 736 42 q 665 -15 546 -15 q 517 -15 488 -13 q 458 -11 416 -4 q 373 2 326 8 q 279 14 245 14 q 210 14 176 9 q 170 8 128 1 q 86 -6 47 -19 z"},"x":{"x_min":0,"x_max":602,"ha":602,"o":"m -7 22 q 36 52 92 105 l 125 138 l 138 151 l 181 199 l 205 227 l 223 249 l 180 321 q 135 396 110 429 q 84 462 52 489 l 15 516 l 26 553 q 57 541 95 536 q 133 531 186 531 q 221 531 289 545 l 314 551 l 329 555 l 341 520 q 330 512 324 498 q 318 483 318 473 q 318 457 334 419 l 351 378 l 356 367 l 361 373 l 382 396 q 415 433 415 467 q 415 488 400 511 l 388 524 l 407 554 l 425 550 q 478 541 515 541 q 558 541 596 553 l 609 512 q 578 492 554 472 q 531 452 490 411 l 473 393 l 469 388 l 433 346 l 393 301 q 419 253 444 214 l 451 204 l 493 144 l 539 75 q 547 62 567 45 q 583 31 584 30 q 594 24 598 22 l 583 -16 q 549 -6 516 -2 q 484 3 435 3 q 409 3 390 2 q 372 1 348 -2 q 324 -6 297 -15 l 276 23 q 297 46 297 76 q 297 110 269 160 l 260 175 q 216 148 216 90 q 216 80 218 66 q 220 52 232 31 l 243 14 l 223 -17 q 178 5 122 5 q 87 5 46 -6 l 13 -17 z"},")":{"x_min":0,"x_max":348,"ha":348,"o":"m 0 -195 q 51 -114 73 -4 q 95 106 95 313 q 95 525 74 632 q 53 739 0 822 l 6 831 q 36 809 63 783 q 312 558 312 313 q 312 69 63 -156 q 36 -182 6 -204 z"},"&":{"x_min":0,"x_max":785,"ha":785,"o":"m 300 434 l 263 441 l 205 454 l 197 455 l 169 465 q 79 503 79 574 q 79 582 81 594 q 83 606 86 619 q 93 643 110 664 q 128 684 162 702 q 195 721 268 734 q 277 735 296 737 q 314 739 330 739 q 359 739 409 730 l 422 727 l 462 718 l 484 714 q 522 707 553 707 q 578 707 600 712 q 621 718 644 730 l 647 695 q 647 648 636 612 q 625 577 605 554 q 575 521 535 521 q 494 521 465 557 q 455 570 449 580 q 443 589 436 609 q 423 643 412 655 q 400 667 385 670 q 370 674 365 674 q 337 674 322 643 q 306 612 306 547 q 306 515 332 494 q 357 472 401 472 q 415 472 432 475 l 452 480 l 470 409 l 437 408 q 364 408 337 382 q 310 357 288 271 q 286 265 285 254 q 284 244 284 234 q 284 144 314 101 q 345 58 405 58 q 489 58 513 120 q 519 138 519 154 q 519 190 491 214 q 463 238 415 238 q 366 238 338 202 q 333 216 333 218 q 333 227 333 230 q 333 263 364 305 q 375 321 390 334 q 406 346 432 358 q 478 380 494 394 q 509 409 509 431 q 509 436 507 454 l 503 473 q 533 479 563 479 q 580 479 590 478 q 600 477 618 474 q 690 460 718 443 q 746 426 746 401 q 746 395 744 385 q 738 364 724 354 q 710 343 676 338 l 634 332 l 621 330 l 493 317 l 513 315 l 559 310 q 646 301 691 271 q 736 241 746 191 q 749 177 749 164 q 749 115 700 65 q 687 52 667 40 q 647 29 604 11 q 567 -4 519 -8 q 471 -13 366 -13 q 318 -13 274 -4 q 230 5 189 22 q 102 58 66 108 q 29 159 29 233 q 29 306 90 358 q 152 411 273 430 z"},"_":{"x_min":0,"x_max":562,"ha":562,"o":"m -7 0 l -7 36 l 569 36 l 569 0 z"},"v":{"x_min":0,"x_max":598,"ha":598,"o":"m -14 512 l 3 550 q 38 536 76 532 q 115 527 175 527 q 195 527 213 530 q 239 536 252 538 l 290 548 l 310 518 l 294 501 q 274 480 268 469 q 262 458 259 435 q 257 423 260 408 q 263 392 272 363 l 290 305 l 310 249 l 324 209 l 329 192 q 338 167 345 134 q 368 179 381 224 q 412 335 412 375 q 412 435 402 463 q 391 491 361 510 l 366 548 q 390 539 411 535 q 432 531 464 531 q 483 531 511 534 q 539 537 571 542 l 598 547 l 612 511 q 579 494 558 470 q 538 445 514 395 l 504 371 l 499 356 l 485 315 l 470 272 l 466 259 l 459 232 q 442 158 442 113 q 442 64 470 18 l 455 -18 q 426 -5 400 0 q 373 6 337 6 l 302 6 l 278 7 q 231 7 218 6 q 206 4 186 -2 q 167 -9 152 -18 l 127 12 q 140 30 146 48 q 152 65 152 90 q 152 128 134 203 l 119 258 l 108 289 l 103 303 l 85 351 l 73 381 l 60 412 q 40 460 1 499 z"},"O":{"x_min":0,"x_max":836,"ha":836,"o":"m 29 393 q 29 442 42 481 q 56 520 92 576 q 128 631 188 672 q 247 712 321 730 q 365 740 413 740 q 465 740 514 727 q 650 693 730 596 q 809 500 809 370 q 809 319 796 268 q 776 190 738 136 q 701 83 636 42 q 617 31 600 22 q 582 14 560 8 q 521 -5 490 -11 q 459 -17 428 -17 q 379 -17 308 1 q 218 23 146 95 q 102 139 79 179 q 56 219 41 277 q 35 303 32 335 q 29 367 29 393 z m 301 194 q 331 51 416 51 q 445 51 476 71 q 512 94 529 142 q 550 201 550 313 l 550 352 l 550 362 l 546 410 l 542 455 l 541 469 l 537 497 l 525 546 q 509 601 498 621 q 488 641 468 655 q 439 675 407 675 q 375 675 348 652 q 320 630 307 590 q 303 580 300 559 q 296 538 292 499 l 287 443 l 286 429 q 285 413 284 400 q 284 388 284 379 q 284 366 284 360 l 288 290 q 291 258 294 236 q 296 214 301 194 z"},"(":{"x_min":0,"x_max":348,"ha":348,"o":"m 342 831 l 348 822 q 297 741 275 631 q 253 521 253 313 q 253 102 274 -5 q 295 -112 348 -195 l 342 -204 q 312 -182 285 -156 q 36 69 36 313 q 36 558 285 783 q 312 809 342 831 z"},"C":{"x_min":0,"x_max":797,"ha":797,"o":"m 737 741 q 743 715 743 690 q 743 669 738 644 q 727 593 707 568 q 687 543 648 529 q 638 525 622 522 q 605 519 596 519 q 538 519 484 583 l 468 604 q 439 643 422 658 q 406 672 388 672 q 379 672 362 668 q 345 665 329 642 q 313 618 298 560 q 292 535 288 512 q 285 488 285 450 q 285 415 286 386 q 287 357 288 330 l 290 304 l 292 285 l 297 245 q 301 209 304 194 q 307 178 314 160 q 335 102 370 75 q 404 48 446 48 q 477 48 502 64 q 528 80 540 106 q 552 132 552 156 q 552 186 537 206 q 510 242 472 242 q 453 242 440 234 q 438 252 443 270 q 448 288 465 316 q 503 381 606 381 q 660 381 699 350 q 738 320 755 265 q 759 253 761 238 q 763 223 763 208 q 763 127 698 68 q 628 5 504 -13 q 487 -16 461 -17 q 435 -18 433 -18 q 385 -18 330 -5 q 274 8 234 28 q 195 47 161 78 q 85 146 58 215 q 30 284 30 387 q 30 436 42 476 q 54 515 77 557 q 126 644 206 689 q 285 734 392 734 q 431 734 473 728 l 535 717 l 564 712 q 608 706 638 706 q 699 706 737 741 z"},"W":{"x_min":0,"x_max":1036,"ha":1036,"o":"m -22 687 l -2 738 q 22 727 40 722 q 59 718 94 718 l 135 716 l 152 715 q 175 715 185 715 q 192 715 196 715 q 237 715 261 719 q 285 723 298 726 q 312 728 340 736 l 364 692 q 319 654 319 595 q 319 585 320 573 q 321 561 324 549 l 341 471 q 360 394 371 360 q 382 326 401 285 l 415 323 l 432 383 l 439 405 l 453 450 l 459 473 q 463 495 466 518 q 470 541 470 556 q 470 580 462 598 q 454 615 437 633 l 424 644 l 446 685 q 471 674 506 668 q 540 662 587 662 l 619 664 l 690 676 l 698 677 l 725 681 l 741 638 q 711 612 711 573 q 711 548 720 506 l 724 486 l 733 455 l 742 425 q 764 350 789 292 q 803 337 810 371 l 814 388 l 823 435 l 829 467 l 835 500 q 837 514 838 530 q 840 546 840 561 q 840 569 840 573 q 840 579 838 589 q 829 639 810 657 l 773 683 l 768 687 l 754 697 l 778 738 q 806 730 832 725 q 857 720 880 720 l 932 722 q 973 722 990 725 q 1006 728 1031 738 l 1058 682 q 1004 654 972 607 q 939 560 913 469 l 910 458 l 892 387 l 869 307 l 860 259 l 858 246 l 850 210 l 846 191 q 843 162 843 148 q 843 140 843 137 q 843 96 852 75 q 862 54 884 39 l 870 -16 l 831 -10 q 774 -2 740 0 q 706 3 671 3 q 641 3 614 -2 q 587 -7 554 -17 l 539 38 q 561 52 572 72 q 582 91 582 126 q 582 173 558 260 q 553 276 548 291 q 539 317 528 340 l 523 352 l 517 364 q 507 347 503 336 l 490 299 l 486 286 l 472 248 q 468 236 466 228 q 459 207 457 196 l 454 178 q 449 148 448 136 q 446 123 446 108 q 446 78 473 48 l 482 39 l 463 -20 q 432 -6 401 1 q 370 8 332 8 q 320 8 308 8 q 297 8 281 6 q 256 6 230 0 q 203 -6 171 -18 l 157 48 q 194 71 194 128 q 194 170 177 237 l 161 300 l 158 311 l 143 362 l 123 427 l 117 445 l 114 454 l 85 532 l 77 553 l 69 576 q 53 621 32 647 q 10 673 -22 687 z"},"A":{"x_min":0,"x_max":820,"ha":820,"o":"m 226 459 l 235 486 q 252 547 252 589 q 252 616 246 636 q 239 656 223 679 l 207 698 l 233 735 q 268 721 294 715 q 320 709 369 709 q 375 708 381 708 q 387 708 394 708 q 405 708 418 708 q 430 708 444 709 l 467 711 l 496 713 q 522 713 544 717 q 565 721 607 738 l 641 703 l 631 691 q 619 675 614 660 q 608 645 608 624 q 608 592 623 505 q 628 479 634 454 q 639 430 649 398 l 675 316 l 684 289 l 700 235 q 728 145 767 89 q 779 73 792 58 q 805 42 820 28 l 799 -15 l 773 -7 q 725 9 692 12 q 659 16 604 16 q 568 16 538 8 q 507 0 473 -15 l 432 25 l 437 31 l 448 43 q 467 65 474 87 q 482 109 482 142 l 482 161 l 481 164 l 473 206 l 471 213 l 466 240 l 458 229 q 412 175 368 175 q 354 175 334 178 q 313 181 288 195 l 267 209 l 264 175 q 264 81 354 36 l 365 31 l 338 -14 l 306 -1 q 276 10 240 14 q 205 19 171 19 q 128 19 110 12 q 91 4 76 -15 l 36 25 l 58 48 q 100 96 124 134 q 147 171 161 211 q 172 243 178 276 q 161 291 141 291 q 105 291 90 256 l 84 239 q 29 262 29 332 q 29 347 32 365 q 35 383 44 398 q 81 466 168 466 q 178 466 189 466 q 192 466 212 462 z m 328 552 l 323 528 l 319 507 l 308 464 q 299 432 299 422 q 299 413 302 406 q 303 403 315 386 l 343 347 l 346 342 l 375 305 q 384 293 399 287 q 405 284 412 284 q 442 284 442 316 q 442 331 440 340 q 439 349 432 378 l 417 434 l 416 438 l 406 471 l 399 496 q 385 535 382 545 q 375 564 362 596 l 336 595 l 332 576 z"},"f":{"x_min":0,"x_max":393,"ha":393,"o":"m -14 454 l 2 462 q 29 475 57 479 q 57 513 46 540 q 36 566 12 587 q 20 627 44 660 q 69 693 108 714 q 129 724 148 730 q 166 735 190 735 q 227 735 240 734 q 254 732 303 719 q 314 716 332 714 q 366 714 384 718 q 402 721 427 733 q 429 726 429 720 q 429 712 429 705 q 429 689 428 681 q 423 634 400 608 q 376 583 341 583 q 324 583 306 590 q 288 598 276 608 q 265 618 252 640 l 227 680 q 221 693 207 696 q 194 699 184 693 q 174 687 172 676 q 171 667 174 658 q 178 648 189 633 l 205 615 q 233 589 242 570 q 252 550 258 506 l 260 486 l 284 483 q 362 483 399 528 q 421 497 421 458 q 421 439 419 428 q 414 394 400 376 q 374 340 340 340 q 321 340 277 353 q 270 354 267 355 q 260 359 257 360 l 260 298 l 260 284 l 260 233 l 260 209 q 260 194 261 182 q 262 171 265 146 q 272 91 282 67 q 292 43 315 27 l 303 -17 q 275 -8 250 -2 q 224 3 197 3 q 135 3 104 0 q 72 -2 36 -14 l 14 21 q 38 38 47 60 q 56 81 67 148 q 69 162 71 183 q 73 204 73 223 l 73 242 l 73 282 l 72 314 l 72 343 q 72 365 70 374 q 69 384 62 408 l 46 413 q 32 415 24 415 q 16 415 8 415 q 0 412 -3 411 z"},"Q":{"x_min":0,"x_max":829,"ha":829,"o":"m 470 -4 l 478 -25 q 500 -74 539 -112 q 595 -165 646 -165 q 676 -165 693 -146 q 705 -132 705 -116 q 705 -89 679 -77 q 687 -65 697 -56 q 730 -26 774 -26 q 781 -26 795 -28 q 847 -39 870 -81 q 886 -110 886 -139 q 886 -165 872 -192 q 855 -226 821 -244 q 787 -261 731 -261 q 684 -261 630 -250 q 551 -235 507 -202 q 463 -168 421 -89 q 398 -45 387 -3 q 321 -3 273 17 q 217 40 142 106 q 113 132 91 163 q 69 194 53 235 q 28 297 28 365 q 28 402 35 436 q 58 566 165 654 q 216 696 262 715 q 316 737 381 737 l 444 737 q 511 731 558 713 q 604 695 636 674 q 667 654 696 624 q 744 573 768 520 q 791 468 798 394 q 800 384 800 373 q 800 362 800 352 q 800 291 778 235 q 763 195 739 162 q 715 128 674 93 q 652 74 623 56 q 582 31 544 16 q 506 2 470 -4 z m 304 172 l 309 149 l 312 138 q 315 126 318 120 q 321 113 325 105 q 357 48 416 48 q 463 48 494 85 q 516 112 530 162 q 537 187 540 212 q 544 236 544 276 l 545 322 q 545 418 538 472 q 532 526 520 563 q 499 627 474 651 q 449 675 404 675 q 343 675 313 620 q 278 557 278 411 l 278 389 q 278 358 282 314 q 282 268 290 232 q 299 196 304 172 z"},"w":{"x_min":0,"x_max":805,"ha":805,"o":"m -14 518 l -6 547 q 54 526 139 526 q 189 526 250 543 l 277 551 l 293 518 q 280 507 272 494 q 263 480 259 468 q 255 455 255 436 q 255 407 272 325 q 277 301 286 272 q 294 243 306 211 q 330 263 337 307 q 353 388 353 423 q 353 455 336 487 l 345 516 l 381 510 q 426 505 458 505 q 515 505 573 519 l 584 487 q 569 457 569 423 q 569 408 570 400 q 571 392 576 374 l 585 345 l 593 318 l 605 279 l 622 234 q 628 251 632 264 q 636 278 642 305 l 643 312 l 654 370 q 661 406 661 431 q 661 462 644 484 q 626 506 602 515 l 614 551 l 635 544 q 671 534 709 534 q 737 534 779 542 l 803 547 l 819 509 q 789 498 770 476 q 751 453 730 403 q 723 386 718 368 q 712 350 706 321 l 705 314 l 692 245 l 670 127 q 666 108 666 89 q 666 47 693 14 l 678 -14 q 624 2 562 2 q 524 2 478 -6 l 441 -14 l 417 15 q 435 30 441 51 q 447 72 447 116 q 447 129 446 139 q 445 149 438 182 q 432 214 424 239 q 415 264 403 285 q 395 270 390 256 q 385 241 379 212 l 369 163 l 364 138 l 360 114 q 357 94 357 78 q 357 46 369 16 l 354 -14 q 316 8 269 8 q 258 8 240 6 q 222 5 210 4 q 171 -1 131 -14 l 113 10 q 130 47 130 88 q 130 140 98 271 q 84 327 74 360 q 64 392 56 413 q 38 454 23 476 q 8 498 -14 518 z"},"-":{"x_min":0,"x_max":354,"ha":354,"o":"m 29 352 q 96 342 170 342 q 248 342 311 353 q 311 307 319 256 l 325 223 q 298 227 252 229 q 207 231 174 231 q 148 231 118 228 q 88 224 53 218 l 48 250 l 42 282 l 36 317 z"},"E":{"x_min":0,"x_max":816,"ha":816,"o":"m 4 693 l 33 734 q 65 716 102 710 q 139 704 195 704 q 214 704 242 710 q 270 715 290 719 l 354 732 l 385 738 q 412 742 432 744 q 452 746 474 746 q 486 746 498 746 q 509 744 513 744 q 617 733 669 700 q 721 668 743 604 l 747 593 q 700 593 661 583 q 622 573 562 545 l 533 530 l 533 562 q 528 617 506 646 q 484 675 447 681 q 429 683 423 683 q 382 683 358 651 q 334 619 324 544 q 321 525 320 490 q 319 454 319 447 q 319 435 320 422 q 320 421 323 396 q 332 410 344 420 q 415 491 472 491 q 516 491 582 451 l 604 436 q 624 423 661 423 q 697 423 731 448 l 742 458 q 747 446 750 430 q 752 413 752 400 q 752 349 724 315 q 695 281 642 269 q 625 265 605 265 q 577 265 550 276 q 523 286 482 312 l 465 324 q 439 343 427 349 q 415 355 402 357 q 389 359 384 359 q 358 359 345 337 q 332 315 325 258 l 323 211 q 323 131 346 92 q 368 52 418 42 q 433 39 447 39 q 493 39 522 70 q 550 102 550 153 q 550 168 547 179 q 544 190 538 204 q 595 173 657 173 q 703 173 754 189 l 794 204 l 793 179 q 782 83 698 24 q 674 7 644 -3 q 615 -13 561 -21 l 521 -25 q 506 -25 495 -25 q 484 -25 478 -25 q 436 -25 418 -24 q 401 -22 357 -13 l 332 -7 l 278 6 l 241 13 q 223 16 199 17 q 175 18 158 18 q 112 18 90 10 q 68 1 52 -17 l 11 21 l 26 40 q 65 94 80 148 q 96 202 96 296 l 96 326 l 96 335 l 94 398 q 94 449 91 473 q 88 497 86 509 q 75 574 64 607 q 52 640 32 665 q 19 681 4 693 z"},"s":{"x_min":0,"x_max":614,"ha":614,"o":"m 256 160 l 243 150 q 238 144 234 137 q 229 130 227 123 q 222 108 222 98 q 222 73 240 56 q 258 39 277 37 q 296 35 306 35 q 311 35 321 37 q 360 42 380 63 q 399 84 399 114 q 399 140 380 156 q 360 173 308 189 l 286 195 l 275 198 l 231 209 l 204 216 q 123 241 90 269 q 58 297 47 348 q 43 363 43 382 q 43 426 70 469 q 98 512 134 530 q 171 548 239 548 q 270 548 278 548 q 285 547 327 541 l 390 533 q 433 526 453 526 q 471 526 486 533 q 495 536 502 540 q 508 545 515 550 l 519 527 q 519 515 519 509 q 519 502 518 494 q 517 485 517 481 q 501 400 424 400 q 410 400 396 406 q 382 412 358 430 l 352 435 l 315 466 q 310 471 296 480 q 283 489 272 494 q 260 498 251 498 q 215 498 208 458 q 204 429 224 411 q 243 393 302 374 l 320 369 l 382 353 l 407 346 q 499 320 539 284 q 579 247 579 189 q 579 179 578 166 q 577 154 574 142 q 559 68 490 26 q 421 -17 302 -17 q 263 -17 228 -13 q 176 -6 159 -1 q 119 10 100 19 q 81 28 66 44 q 52 60 44 77 q 36 94 36 111 q 36 143 66 173 q 89 196 138 196 q 154 196 186 192 q 219 187 256 160 z"},"l":{"x_min":0,"x_max":326,"ha":326,"o":"m 4 698 l 23 739 q 52 726 71 721 q 90 716 125 716 q 146 716 156 716 q 214 716 240 720 q 267 723 295 738 l 319 701 q 294 678 281 648 q 268 619 259 560 q 257 540 256 498 q 255 455 255 369 l 255 314 q 255 255 256 222 q 258 189 261 170 q 270 100 276 78 q 283 57 307 29 l 318 16 l 297 -18 q 252 2 191 8 q 153 8 115 8 q 66 6 32 -11 l 7 21 q 34 42 45 66 q 56 90 67 162 q 70 179 72 198 q 74 216 74 237 l 74 250 l 74 293 l 73 367 l 72 409 l 68 509 q 61 593 48 630 q 36 666 4 698 z"},"8":{"x_min":0,"x_max":747,"ha":747,"o":"m 178 312 q 141 327 110 353 q 40 414 40 500 q 40 550 65 596 q 90 641 139 676 q 168 697 208 711 q 249 725 306 731 l 350 735 q 383 735 412 734 q 441 732 479 722 q 559 703 598 682 q 636 661 655 628 q 663 616 667 601 q 675 575 675 556 q 675 501 628 463 q 592 433 545 433 q 539 433 533 433 q 525 435 522 435 l 547 422 q 712 332 712 228 q 712 176 675 120 q 661 99 639 80 q 617 61 579 38 q 541 16 469 -3 q 433 -12 398 -14 q 364 -15 279 -15 l 227 -9 q 167 2 130 18 q 94 35 74 57 q 29 107 29 160 q 29 223 89 276 q 130 312 178 312 z m 471 520 q 515 530 515 574 q 515 591 507 606 l 498 620 q 481 642 456 654 q 430 666 383 666 q 315 666 280 644 q 246 621 246 581 q 246 548 275 524 q 287 516 298 510 q 309 505 346 491 l 425 465 l 456 456 l 430 486 q 422 496 416 505 q 411 514 403 529 l 418 523 q 432 518 451 518 q 464 518 471 520 z m 250 206 q 232 202 220 186 q 209 170 209 147 q 209 132 210 127 q 212 119 218 105 q 228 82 258 66 q 287 51 331 51 q 351 51 381 56 q 394 57 411 64 q 478 88 478 144 q 478 173 456 199 q 444 214 422 226 q 400 239 353 255 l 300 270 l 271 277 q 296 254 309 223 l 318 201 q 315 202 303 205 q 291 208 281 208 q 267 209 250 206 z"},"e":{"x_min":0,"x_max":627,"ha":627,"o":"m 594 309 l 522 294 l 359 257 l 312 246 l 283 239 l 238 229 l 238 199 q 238 114 268 75 q 294 41 338 41 q 375 41 397 68 q 419 95 419 141 q 419 189 391 216 q 421 243 463 243 q 497 243 542 223 q 599 196 599 138 q 599 116 588 92 q 578 67 556 44 q 534 20 500 6 q 465 -7 402 -13 q 395 -14 389 -14 q 382 -14 379 -14 q 368 -14 358 -14 q 347 -13 336 -13 q 197 -13 113 60 q 29 134 29 243 q 29 321 50 378 q 71 434 120 477 q 199 548 310 548 q 346 548 387 539 q 452 523 493 494 q 534 466 563 415 q 579 389 586 364 q 594 339 594 309 z m 394 411 q 390 449 374 472 q 357 494 332 494 q 304 494 283 467 q 259 436 249 378 l 242 333 l 236 290 l 362 319 q 396 326 396 384 q 396 390 395 398 q 394 406 394 411 z"},"b":{"x_min":0,"x_max":670,"ha":670,"o":"m 4 703 l 24 736 q 48 730 70 726 q 92 723 121 720 q 186 720 224 724 q 263 727 307 742 l 325 707 q 299 682 290 662 q 282 642 269 578 q 261 548 261 519 q 261 506 271 506 q 278 505 292 514 l 299 520 l 307 526 q 333 548 381 548 q 394 548 407 548 q 421 545 427 544 q 516 529 576 457 l 594 434 q 618 397 630 348 q 641 300 641 245 q 641 220 636 200 q 631 180 619 152 q 585 71 532 35 q 480 -1 383 -10 q 376 -11 368 -11 q 360 -11 355 -11 q 324 -11 217 2 l 174 5 q 135 5 108 1 q 80 -3 46 -16 l 21 6 l 34 30 q 58 78 66 111 q 75 144 75 208 q 75 229 74 252 q 70 345 70 460 l 66 511 q 55 603 44 636 q 34 669 4 703 z m 360 51 q 378 56 392 78 q 405 101 413 148 q 413 150 416 174 q 420 199 420 217 q 420 232 420 248 q 420 264 421 280 l 417 339 q 408 421 397 443 q 386 465 351 473 q 340 476 332 476 q 299 476 281 432 q 272 413 268 382 q 263 352 263 294 l 263 261 q 263 226 264 206 q 265 186 267 165 q 274 99 288 73 q 303 47 332 47 q 336 47 341 47 q 349 48 360 51 z"},"%":{"x_min":0,"x_max":990,"ha":990,"o":"m 389 -15 q 462 360 515 737 q 536 730 562 730 q 582 730 602 736 q 564 554 534 375 q 503 196 475 -16 q 453 -5 431 -5 q 411 -5 389 -15 z m 29 546 q 29 567 34 587 q 40 607 50 627 l 61 645 q 121 738 236 738 q 255 738 265 737 q 275 736 295 731 q 367 714 410 657 l 420 644 q 437 619 444 590 q 451 562 451 523 q 451 500 438 463 q 416 406 368 371 q 319 336 255 336 q 197 336 154 352 q 112 369 78 409 q 50 440 40 472 q 29 504 29 546 z m 539 194 q 539 215 544 235 q 550 255 560 275 l 570 293 q 630 386 746 386 q 764 386 774 385 q 784 384 804 379 q 876 363 920 305 l 930 292 q 946 266 953 237 q 960 208 960 170 q 960 144 947 111 q 925 53 877 18 q 829 -16 764 -16 q 707 -16 664 0 q 621 17 587 57 q 560 88 550 120 q 539 153 539 194 z m 184 487 l 186 463 l 189 442 q 195 407 209 392 q 223 376 241 376 q 269 376 283 403 q 288 413 292 426 q 296 440 296 458 l 298 495 l 298 514 l 298 569 l 298 577 l 295 611 l 293 628 q 289 661 281 676 q 273 691 259 697 q 245 703 234 703 q 201 703 190 655 l 188 641 l 186 626 l 184 597 l 181 555 l 182 508 z m 693 135 l 695 111 l 699 90 q 703 65 710 52 q 726 24 751 24 q 770 24 785 40 q 794 50 800 66 q 805 81 805 106 l 807 144 l 808 161 l 808 217 l 808 225 l 804 259 l 802 276 q 794 334 769 345 q 755 351 744 351 q 710 351 699 302 l 697 289 l 696 272 l 693 245 l 691 204 l 691 200 q 691 190 691 179 q 691 168 692 156 z"},"m":{"x_min":0,"x_max":955,"ha":955,"o":"m 7 30 q 38 57 50 88 q 61 120 68 205 q 71 237 71 265 q 71 286 70 308 q 68 329 64 352 q 48 445 9 500 l 33 543 q 52 531 76 524 q 100 517 117 517 q 139 517 196 527 l 278 542 l 315 547 q 328 549 346 550 q 363 551 376 551 q 450 551 516 516 l 526 510 l 534 505 q 599 550 695 550 q 714 550 724 548 q 735 547 756 541 q 821 525 854 498 q 887 470 902 420 q 909 398 909 371 q 909 348 904 326 q 898 304 886 284 q 875 265 848 238 l 844 235 l 787 187 q 751 156 742 140 q 733 123 733 91 l 738 68 q 746 49 766 49 q 777 49 785 56 q 800 68 800 93 q 800 104 798 110 q 792 132 771 142 q 784 153 792 157 q 815 170 840 170 q 865 170 885 155 q 920 128 920 91 q 920 70 910 46 q 899 23 878 10 q 857 -2 817 -10 q 810 -12 802 -12 q 794 -12 789 -12 q 747 -12 702 7 q 673 20 652 38 q 587 93 587 158 q 587 175 590 200 q 593 224 608 256 q 622 288 663 353 l 698 402 q 704 412 704 431 q 705 437 703 445 q 695 492 649 492 q 633 492 619 485 q 595 476 582 458 l 591 433 q 600 403 600 375 q 600 350 594 326 q 588 302 575 280 q 558 252 545 230 q 541 223 539 220 q 536 214 532 200 q 524 168 524 144 q 524 96 548 62 q 571 27 611 14 q 600 -1 572 -8 q 544 -14 476 -14 q 409 -14 366 36 q 322 87 322 167 q 322 197 326 220 q 330 244 342 278 l 355 314 l 369 347 q 394 412 394 438 q 394 459 381 479 q 368 499 338 499 q 313 499 292 481 q 276 467 269 448 q 262 428 258 384 l 254 331 l 253 318 q 253 301 252 284 q 252 267 252 251 l 252 229 l 254 185 q 254 141 260 116 q 267 92 281 66 q 295 40 317 21 l 299 -15 q 269 -3 246 3 q 223 9 200 9 q 152 9 105 9 q 58 7 26 -16 z"},",":{"x_min":0,"x_max":306,"ha":306,"o":"m 114 -140 q 125 -133 127 -131 q 132 -127 138 -118 q 153 -95 153 -76 q 153 -40 107 -14 q 75 4 61 20 q 47 36 40 58 q 33 80 33 97 q 33 119 42 139 q 58 173 84 190 q 111 208 145 208 q 199 208 234 170 q 270 131 270 69 q 270 25 250 -24 q 221 -96 143 -130 z"},"n":{"x_min":0,"x_max":674,"ha":674,"o":"m 11 513 l 21 551 l 44 545 q 74 538 108 535 q 142 532 223 532 l 325 545 l 353 548 q 457 548 519 524 q 581 500 610 451 q 638 402 638 353 q 638 273 556 201 l 532 182 q 497 156 484 142 q 470 127 465 111 q 460 95 460 80 q 460 44 488 32 q 492 30 501 30 q 525 30 533 52 q 535 60 535 65 q 535 87 518 110 l 505 122 q 525 153 563 153 q 577 153 591 148 q 605 143 619 131 q 645 108 645 76 q 645 48 626 17 q 614 -2 589 -15 q 564 -28 528 -28 q 483 -28 447 -14 q 411 0 380 33 q 323 96 323 159 q 323 193 336 231 l 351 267 l 354 272 l 394 335 q 406 354 415 375 q 428 405 428 422 q 428 490 358 490 q 346 490 340 489 q 302 483 283 439 q 264 395 264 285 l 264 230 q 264 142 279 98 q 291 62 328 23 l 316 -16 l 287 -6 q 256 3 230 6 q 204 8 190 10 q 177 11 159 11 q 123 11 94 4 q 66 -2 36 -17 l 18 28 q 42 54 54 84 q 67 113 72 160 l 74 187 l 74 204 l 74 247 l 73 296 l 72 305 l 70 326 q 59 419 49 450 q 39 482 11 513 z"},"h":{"x_min":0,"x_max":656,"ha":656,"o":"m 0 698 l 22 734 q 79 716 141 716 q 185 716 235 725 l 274 734 l 304 700 q 277 672 267 646 q 257 620 257 567 l 253 507 l 253 496 l 287 512 q 329 531 354 538 q 378 544 406 544 q 466 544 518 513 q 569 482 594 436 q 604 416 610 396 q 616 376 616 358 q 616 316 586 272 q 556 228 481 161 l 469 150 q 456 140 445 113 q 441 105 441 94 q 438 67 451 49 q 460 37 476 37 q 483 37 489 40 q 510 50 510 75 q 510 88 500 100 q 491 112 474 115 q 484 156 531 156 q 551 156 577 146 q 620 129 620 75 q 620 50 610 26 q 589 -24 514 -24 q 490 -24 460 -18 q 400 -5 355 60 q 316 116 316 175 q 316 237 358 309 l 368 328 q 391 373 396 386 q 401 399 401 416 q 401 439 386 454 q 371 469 349 469 q 341 469 332 466 q 300 457 279 420 q 270 405 266 390 q 262 374 262 346 l 260 309 l 259 294 l 259 268 q 259 209 265 160 q 271 111 279 90 q 287 69 317 32 l 329 17 l 311 -14 q 283 -3 260 2 q 238 8 215 8 q 145 8 107 6 q 69 4 29 -14 l 11 21 q 26 36 36 50 q 45 65 55 90 q 65 115 68 136 q 71 157 71 212 l 71 298 l 71 323 l 71 346 l 70 379 l 68 433 q 68 544 50 606 q 36 656 0 698 z"},"z":{"x_min":0,"x_max":648,"ha":648,"o":"m 29 400 q 29 426 42 449 q 56 472 88 500 q 147 551 232 551 q 253 551 264 550 q 275 549 298 544 l 308 542 l 338 535 q 354 531 376 528 q 398 525 416 525 q 467 525 479 526 q 525 530 565 549 l 589 509 q 553 474 520 427 l 514 418 l 481 367 l 478 362 l 441 309 q 433 299 420 279 q 408 259 401 248 l 388 226 q 377 207 360 175 q 342 143 336 125 q 329 107 329 94 q 329 69 346 54 q 364 40 395 40 q 424 40 447 66 q 470 93 470 135 q 470 197 429 224 q 444 259 488 259 q 505 259 529 253 q 619 230 619 130 q 619 107 610 86 q 589 37 561 18 q 533 -1 472 -9 q 452 -12 444 -12 q 435 -13 423 -13 q 408 -13 391 -10 q 374 -8 338 -1 l 307 4 l 267 11 l 236 15 q 194 20 185 20 q 176 20 169 20 q 133 20 106 12 q 80 3 52 -17 l 30 32 q 61 66 82 94 q 104 123 162 209 l 206 275 l 223 303 l 238 327 l 267 378 q 292 422 292 443 q 292 448 290 456 q 289 463 288 467 q 279 504 245 504 q 232 504 222 497 q 196 480 185 438 q 181 423 181 401 q 181 387 184 373 l 186 365 l 188 358 l 172 366 q 146 378 118 386 q 91 394 49 399 z"},"B":{"x_min":0,"x_max":780,"ha":780,"o":"m 0 709 l 29 739 q 76 716 141 709 q 167 706 188 706 q 222 706 275 716 l 350 729 q 418 741 473 741 q 605 741 680 681 q 750 625 750 540 q 750 490 728 464 q 707 437 646 414 q 624 406 583 394 l 553 388 l 588 385 q 674 373 720 334 q 766 296 777 229 q 780 208 780 188 q 780 79 670 21 q 634 2 588 -8 q 541 -19 467 -19 q 445 -19 425 -18 q 405 -18 366 -12 l 359 -11 l 294 1 l 264 6 q 234 10 214 12 q 193 14 171 14 q 119 14 53 -9 l 38 -15 l 12 26 q 57 75 76 136 q 95 198 95 306 l 95 342 l 94 355 l 91 431 l 89 467 l 88 484 q 88 540 72 585 q 57 630 27 674 q 25 678 18 688 q 10 698 0 709 z m 399 423 q 459 423 486 448 q 512 474 512 532 q 513 539 513 553 q 513 602 492 632 q 471 661 430 670 q 415 674 398 674 q 358 674 337 639 q 316 604 316 526 l 316 426 l 340 424 q 356 424 371 424 q 386 423 399 423 z m 319 186 q 336 45 410 45 q 429 45 453 54 q 525 80 525 193 q 525 204 525 210 q 524 217 524 221 q 518 291 484 322 q 450 353 371 353 q 354 353 342 350 q 330 348 313 341 l 317 210 z"},"K":{"x_min":0,"x_max":890,"ha":890,"o":"m 7 693 l 37 739 l 63 734 l 103 727 q 128 723 163 720 q 198 717 246 717 q 313 717 389 738 l 415 694 q 386 679 370 652 q 353 625 340 570 q 337 556 334 540 q 331 525 331 494 l 327 453 l 327 440 q 326 431 326 420 q 326 409 326 403 q 326 390 326 380 q 326 370 326 363 l 353 409 l 359 420 l 370 443 l 407 519 l 419 542 q 481 644 535 686 q 589 728 664 735 q 671 736 680 736 q 688 736 692 736 q 708 736 717 735 q 726 734 742 731 q 786 722 810 705 q 833 688 852 652 q 868 623 868 590 q 868 542 832 508 q 797 473 751 473 q 745 473 730 475 q 716 477 710 480 l 714 488 q 723 506 723 523 q 723 547 706 566 q 688 584 665 588 q 642 591 635 591 q 557 591 497 501 l 485 480 q 502 462 527 446 q 552 430 580 420 q 607 411 649 405 l 669 402 l 672 370 q 683 274 724 190 q 756 125 775 100 q 794 75 830 49 l 849 36 l 825 -16 q 790 -2 744 3 q 698 8 626 8 q 579 8 550 2 q 520 -3 490 -15 l 457 32 q 476 45 486 62 q 495 79 495 105 q 495 144 470 209 q 444 274 416 293 q 397 306 380 306 q 348 306 332 259 q 324 238 324 208 q 324 146 336 120 q 347 95 391 57 l 421 31 l 400 -14 l 344 -1 l 290 12 l 286 13 q 263 17 225 17 q 205 17 185 17 q 167 14 159 13 q 101 7 45 -15 l 7 31 q 55 58 74 114 q 94 171 94 300 l 94 335 l 93 352 l 91 399 l 91 482 q 91 492 91 497 q 91 506 89 522 q 80 599 60 638 q 41 677 7 693 z"},"R":{"x_min":0,"x_max":864,"ha":864,"o":"m 4 692 l 28 738 l 60 732 q 111 722 150 720 q 189 717 234 717 l 237 718 l 311 728 l 329 730 q 390 737 420 738 q 450 740 489 740 q 498 740 502 740 q 563 740 604 729 q 644 718 677 698 q 728 666 752 633 q 777 600 782 557 q 783 550 783 536 q 783 461 725 414 q 708 401 686 392 q 663 383 629 376 l 582 368 l 570 366 l 507 355 l 533 353 q 605 342 638 319 q 671 296 693 240 l 696 232 l 708 199 q 714 182 718 174 q 722 167 731 159 q 740 151 750 151 q 767 151 774 164 q 781 177 782 185 q 783 193 783 203 q 783 217 779 225 q 809 222 830 194 q 850 167 850 127 q 850 101 840 72 q 827 36 808 16 q 788 -5 749 -21 q 718 -34 677 -34 q 647 -34 639 -33 q 621 -28 613 -27 q 509 -5 469 105 q 462 123 460 133 q 458 143 450 192 l 446 214 q 434 277 412 298 q 391 320 339 325 l 326 325 l 323 295 q 323 179 336 126 q 349 73 390 41 l 363 -18 q 314 8 260 14 q 206 21 166 21 q 117 21 84 8 q 62 -1 40 -15 l 12 35 q 36 63 52 100 q 69 136 82 194 q 90 233 92 259 q 95 285 95 360 l 95 378 l 92 432 l 89 481 l 87 517 l 82 559 q 72 617 54 646 q 37 676 4 692 z m 488 446 q 504 463 512 482 q 519 500 520 516 q 522 532 522 538 q 522 546 522 550 q 522 590 508 618 q 494 647 470 660 q 447 673 422 673 q 387 673 361 646 q 335 618 328 569 q 317 499 317 445 l 318 405 l 342 402 q 448 402 488 446 z"},"T":{"x_min":0,"x_max":720,"ha":720,"o":"m 715 742 q 718 728 719 723 q 720 717 720 704 q 720 679 710 651 q 689 593 648 561 q 606 529 542 529 l 518 529 l 518 448 l 518 368 l 520 286 l 521 271 l 526 206 q 526 140 539 112 q 552 84 596 46 l 610 35 l 591 -18 l 577 -14 l 558 -8 l 544 -4 l 524 1 q 497 8 476 11 q 455 14 431 14 q 410 14 386 11 l 336 6 q 272 -1 237 -17 l 209 37 q 270 67 282 132 q 294 197 294 469 l 291 519 l 290 532 l 287 559 q 278 562 270 564 q 262 567 248 570 q 234 572 215 574 q 196 575 174 575 q 122 575 94 559 q 65 543 57 520 q 49 496 49 478 q 49 464 54 454 q 65 432 90 432 q 100 432 111 438 q 122 445 122 461 q 122 470 118 475 q 110 488 94 488 q 98 502 111 513 q 129 528 156 528 q 166 528 184 526 q 202 523 220 503 q 239 483 239 452 q 239 433 232 413 q 220 380 195 362 q 170 345 128 345 q 74 345 38 378 q 3 411 -10 478 q -14 497 -14 521 q -14 534 -13 540 q -1 640 69 689 q 144 741 292 741 q 336 741 399 733 l 424 729 l 477 721 l 507 717 q 542 714 570 714 q 649 714 715 742 z"},"P":{"x_min":0,"x_max":766,"ha":766,"o":"m 14 30 q 43 50 58 84 q 72 119 83 202 q 89 238 90 278 q 92 319 92 411 l 91 468 q 91 562 74 608 q 56 654 16 689 l 50 737 q 66 722 86 715 q 105 708 151 702 q 169 700 180 700 q 204 700 266 708 l 295 713 l 326 718 l 359 725 q 384 729 395 730 q 406 731 422 731 l 447 731 q 583 731 662 682 q 735 637 758 552 q 767 519 767 487 q 767 433 742 387 q 717 341 679 316 q 641 291 572 277 q 543 271 503 269 q 463 267 395 267 l 356 268 l 324 269 l 324 240 l 329 176 q 336 112 348 89 q 359 66 397 40 l 407 33 l 390 -15 l 349 -4 q 279 13 218 13 q 205 13 192 13 q 180 11 175 11 q 137 11 106 4 q 76 -3 42 -16 z m 524 527 q 524 587 507 618 q 490 650 455 663 q 438 669 423 669 q 368 669 334 603 q 327 589 324 569 q 320 549 320 509 l 317 441 l 317 433 l 320 357 q 333 354 353 351 q 373 348 385 348 q 462 348 493 386 q 524 425 524 527 z"},"t":{"x_min":0,"x_max":483,"ha":483,"o":"m -14 433 q 16 460 51 470 l 76 475 q 77 485 78 492 q 78 500 78 504 q 78 520 75 537 q 66 583 58 600 q 51 617 36 628 l 48 668 q 72 664 102 664 q 162 664 252 693 l 285 706 l 318 687 l 297 652 q 288 634 282 612 q 277 589 274 557 l 271 524 l 270 507 q 289 503 312 503 q 362 503 405 525 l 431 541 q 448 512 448 481 q 448 408 406 378 q 384 362 359 362 q 346 362 316 367 l 264 376 l 264 152 l 272 99 q 277 62 287 50 q 297 38 322 38 q 340 38 353 48 q 366 58 369 76 q 372 94 372 100 q 372 134 346 136 q 319 139 316 141 q 309 146 302 162 q 296 178 296 192 q 296 217 314 236 q 333 254 368 260 q 384 262 392 262 q 454 262 488 205 l 497 186 q 504 166 504 143 q 504 121 495 92 q 479 45 446 20 q 412 -4 345 -14 q 321 -18 288 -18 q 226 -18 180 0 q 135 19 89 59 l 57 90 l 43 107 q 61 128 68 150 q 76 172 84 230 q 86 240 86 263 q 86 286 87 303 l 87 338 l 86 357 l 85 411 q 78 412 72 412 q 67 412 65 412 q 31 412 6 398 z"},"M":{"x_min":0,"x_max":964,"ha":964,"o":"m -7 36 q 34 57 58 95 q 83 133 106 218 q 116 252 120 277 q 128 322 128 384 l 132 439 l 133 457 q 133 466 133 471 q 133 479 133 483 q 133 523 127 553 q 113 612 100 637 q 87 662 61 681 l 81 738 q 113 720 139 713 q 165 706 224 706 q 243 706 252 706 q 261 706 265 706 q 299 706 322 710 q 367 719 371 720 q 391 725 409 736 l 430 684 q 402 660 402 627 q 402 600 420 556 l 434 526 q 452 488 462 457 q 471 426 474 392 q 483 405 487 418 l 488 421 l 498 448 q 503 463 511 483 q 519 503 539 548 l 541 555 q 553 599 553 626 q 553 673 512 681 l 530 738 q 561 726 593 720 q 625 713 663 713 q 740 713 778 715 q 816 717 860 736 l 899 693 q 877 675 863 655 q 849 635 844 618 q 839 601 834 560 l 829 518 l 828 509 q 828 488 829 460 q 830 433 831 407 q 831 326 844 256 q 854 201 871 157 q 894 96 914 74 q 934 52 971 44 l 950 -16 l 927 -9 q 882 2 836 6 q 789 11 741 11 q 701 11 662 4 q 623 -4 579 -18 l 549 28 q 566 35 579 49 q 592 63 606 93 q 612 105 616 126 q 619 146 619 180 l 620 233 l 620 240 l 620 260 l 619 301 l 618 342 l 617 361 l 607 458 l 602 491 q 580 449 562 406 q 543 362 516 290 l 492 223 l 481 193 l 467 152 l 448 96 l 431 43 l 416 -3 l 395 -3 l 387 21 l 381 38 l 378 46 l 344 155 l 322 222 l 297 286 l 272 352 l 261 380 l 247 417 l 233 452 l 217 491 l 207 407 l 199 339 q 197 314 196 291 q 194 268 194 247 q 194 188 198 164 q 203 140 213 116 q 241 58 285 39 l 270 -15 q 232 -1 198 3 q 165 7 133 7 q 102 7 75 1 q 48 -5 21 -16 z"},"g":{"x_min":0,"x_max":642,"ha":642,"o":"m 375 546 l 363 577 q 357 597 357 614 q 357 660 392 690 q 428 721 483 721 q 494 721 503 718 q 512 716 525 710 q 577 685 584 636 q 585 631 585 620 q 585 592 572 570 q 558 549 534 541 q 520 536 518 536 q 509 536 506 536 q 498 536 494 537 q 500 549 500 562 q 500 572 495 584 q 493 592 484 600 q 476 609 463 609 q 448 609 436 596 q 425 582 425 570 q 425 543 499 499 l 524 484 q 536 477 550 464 q 563 452 575 435 q 613 381 613 299 q 613 288 613 282 q 612 275 612 272 q 609 242 598 212 q 576 158 537 125 q 498 92 431 72 l 396 63 q 377 59 358 57 q 340 55 318 55 q 283 55 243 63 q 252 46 252 28 q 252 -8 212 -47 l 196 -63 q 168 -92 168 -113 q 168 -124 174 -133 q 185 -151 205 -151 q 210 -151 220 -147 q 237 -140 253 -121 q 269 -102 307 -40 l 321 -16 q 325 -8 330 -2 q 335 4 344 13 q 381 46 438 46 q 454 46 463 45 q 518 45 550 16 q 582 -14 588 -64 q 589 -70 589 -82 q 589 -188 447 -207 l 417 -209 q 426 -199 432 -188 q 435 -183 440 -168 q 444 -154 444 -145 q 444 -133 435 -124 q 426 -115 413 -115 q 409 -115 400 -118 q 391 -122 382 -128 q 374 -133 361 -147 q 333 -177 302 -192 q 271 -206 230 -206 q 158 -206 119 -171 q 77 -132 77 -88 q 77 -65 86 -32 l 91 -18 q 99 4 99 15 q 99 36 78 42 q 75 43 67 43 q 63 43 57 41 q 68 67 86 88 q 103 110 125 124 q 101 140 81 164 q 29 226 29 302 q 29 355 56 410 q 84 465 132 499 q 181 533 256 547 q 286 551 292 552 q 308 552 315 552 q 345 552 375 546 z m 252 204 q 259 152 276 132 q 292 113 325 113 q 358 113 374 138 q 390 164 397 232 q 399 247 399 280 q 399 313 399 328 l 397 347 q 389 434 376 461 q 363 488 330 495 q 318 497 313 497 q 285 497 270 472 q 254 446 249 388 l 246 352 l 245 336 l 245 282 l 246 261 z"},"j":{"x_min":0,"x_max":336,"ha":336,"o":"m 59 683 q 69 721 98 744 q 128 766 166 766 q 184 766 199 762 q 267 744 279 676 q 282 661 282 648 q 282 564 192 542 q 184 540 168 540 q 149 540 136 544 q 98 557 76 586 q 55 614 55 652 q 55 661 55 670 q 58 679 59 683 z m 98 -114 q 91 -95 71 -102 l 63 -109 q 58 -116 58 -123 q 58 -139 76 -146 q 94 -154 110 -154 q 124 -154 133 -150 q 165 -137 165 -107 q 165 -101 161 -89 l 146 -58 l 138 -43 l 122 -17 q 119 -11 112 4 q 105 20 100 33 q 88 64 84 88 q 79 111 79 147 l 78 192 l 78 209 l 77 279 l 78 332 q 78 400 72 422 q 66 443 36 479 l 8 512 l 32 546 q 87 515 163 515 q 243 515 295 547 l 324 518 q 281 463 270 382 q 268 368 267 349 q 266 330 266 293 l 266 246 l 266 231 q 266 210 267 193 q 268 176 270 148 q 278 77 287 48 q 296 19 322 -21 l 336 -40 q 315 -113 249 -161 q 187 -203 107 -203 q 85 -203 56 -200 q -12 -193 -44 -177 q -76 -161 -89 -132 q -95 -117 -95 -102 q -95 -67 -70 -43 q -45 -19 -3 -19 q 42 -19 70 -42 q 99 -66 99 -101 q 99 -110 98 -114 z"},"i":{"x_min":0,"x_max":322,"ha":322,"o":"m 36 684 q 45 729 88 756 q 116 773 147 773 q 180 773 208 758 q 235 742 250 716 q 265 689 265 659 q 265 627 249 600 q 233 573 204 558 q 176 544 149 544 q 114 544 86 564 q 58 585 43 622 q 34 645 34 664 q 34 670 36 684 z m 0 519 l 20 550 q 51 536 84 530 q 118 523 159 523 q 240 523 297 550 l 315 516 q 277 478 262 436 q 247 393 247 306 l 247 248 q 247 140 259 102 q 271 65 313 29 l 302 -15 l 291 -12 l 273 -9 l 248 -5 q 161 9 125 9 q 97 9 77 4 q 57 -2 29 -16 l 5 20 q 31 40 44 68 q 57 95 64 146 l 70 205 l 70 267 q 70 283 70 290 q 70 327 66 350 l 65 358 l 55 405 q 48 443 44 455 q 40 467 28 486 q 23 494 16 502 q 9 510 0 519 z"},"y":{"x_min":0,"x_max":606,"ha":606,"o":"m -7 513 l 15 551 l 54 541 q 101 532 146 532 q 205 532 262 549 l 292 516 q 274 500 264 478 q 255 457 255 427 q 255 381 277 308 l 289 269 l 296 248 l 299 237 l 315 187 l 321 169 l 334 128 q 378 128 412 164 q 445 199 469 275 q 478 305 478 327 q 478 355 466 369 q 454 383 434 383 q 419 383 408 372 q 398 362 398 345 q 332 366 332 446 q 333 454 333 459 q 333 505 360 530 q 387 555 434 555 q 449 555 468 552 q 488 548 508 534 q 527 521 545 496 q 563 472 570 446 q 577 419 577 386 l 576 367 l 575 346 q 570 301 560 268 q 549 236 524 194 q 485 132 434 94 q 384 56 295 22 l 277 16 l 269 14 l 222 2 l 204 -4 q 149 -23 128 -38 q 107 -52 98 -75 q 95 -84 95 -91 q 95 -106 105 -118 q 115 -130 131 -130 q 139 -131 143 -131 q 160 -131 177 -122 q 194 -112 226 -85 l 277 -43 l 284 -37 q 287 -34 293 -30 q 299 -25 307 -20 q 357 5 390 5 q 395 5 400 5 q 408 3 416 1 q 463 -11 482 -33 q 501 -55 514 -111 q 520 -135 520 -162 q 520 -169 520 -178 q 519 -186 516 -201 l 501 -186 q 480 -169 460 -162 q 440 -154 411 -154 q 378 -154 322 -168 l 283 -178 l 267 -183 l 213 -192 l 185 -194 q 172 -194 166 -194 q 141 -194 123 -191 q 82 -184 58 -156 q 33 -129 33 -92 q 33 -59 52 -25 q 76 20 141 51 l 169 62 l 162 89 l 155 114 l 139 165 l 119 230 l 101 291 l 86 336 q 61 410 42 446 q 23 481 -7 513 z"},".":{"x_min":0,"x_max":295,"ha":295,"o":"m 36 83 q 35 92 35 97 q 35 117 43 141 q 56 174 84 194 q 112 213 147 213 q 175 213 202 198 q 242 175 254 134 q 257 121 258 115 q 259 109 259 97 q 259 61 240 34 q 220 6 183 -8 q 165 -15 144 -15 q 72 -15 42 58 z"},"p":{"x_min":0,"x_max":672,"ha":672,"o":"m 7 -162 q 32 -143 44 -118 q 55 -94 66 -30 q 69 -8 72 20 q 75 49 75 81 l 75 116 l 75 155 l 74 188 l 73 229 q 73 271 72 289 q 71 307 68 335 q 60 427 48 463 q 37 499 10 521 l 33 555 q 68 541 94 536 q 120 530 158 530 q 202 530 291 539 l 331 543 q 337 544 343 544 q 351 544 355 544 q 370 544 378 544 q 404 544 428 538 q 452 533 474 524 q 577 480 619 384 q 643 332 643 270 q 643 201 627 154 q 611 107 579 70 q 536 22 469 4 q 434 -5 402 -5 q 325 -5 265 43 l 260 6 q 260 -56 274 -98 q 289 -140 322 -170 l 302 -206 q 274 -192 236 -188 q 197 -183 131 -183 q 80 -188 32 -206 z m 301 92 q 322 68 352 68 q 369 68 382 79 q 396 90 404 112 q 413 134 422 184 q 425 201 426 238 q 427 275 427 280 l 427 291 l 426 313 q 426 342 424 354 q 423 367 418 396 q 413 425 407 443 q 401 461 391 474 q 375 493 349 493 q 333 493 320 486 q 306 480 296 466 q 286 451 282 436 q 277 421 271 382 l 268 357 l 264 298 l 267 215 q 272 156 278 134 q 285 111 301 92 z"},"X":{"x_min":0,"x_max":760,"ha":760,"o":"m -14 680 l 6 737 l 41 731 q 115 718 188 718 q 249 718 289 723 q 329 728 375 741 l 408 696 l 400 689 q 377 665 377 645 q 377 632 390 599 l 405 563 q 414 544 417 538 q 424 525 435 507 l 446 489 q 463 504 473 519 l 478 526 l 491 546 q 517 587 517 616 q 517 651 483 680 q 476 687 462 694 l 479 733 l 528 724 q 556 720 593 720 q 608 720 623 720 q 645 723 662 725 q 680 727 693 730 q 706 732 740 740 l 770 695 q 729 670 702 646 q 674 623 613 559 q 594 540 568 510 q 543 480 518 449 l 495 420 q 506 399 515 384 q 524 369 532 357 l 538 348 l 575 295 l 577 292 l 615 233 l 622 222 l 661 165 q 697 112 718 90 q 739 68 774 46 l 754 -16 q 711 0 663 4 q 615 9 535 9 q 497 9 464 2 q 431 -4 395 -16 l 369 46 q 402 52 402 90 q 402 108 393 132 q 390 142 385 152 q 380 161 368 183 l 353 208 l 345 221 l 320 259 l 299 242 q 236 182 236 137 q 236 125 241 112 q 246 98 255 84 q 278 52 318 44 l 295 -14 q 263 -5 226 0 q 188 6 155 6 q 90 6 64 2 q 38 -1 9 -15 l -10 45 q 20 64 42 84 q 65 103 100 142 l 140 185 l 150 198 q 168 217 188 242 q 209 266 228 288 l 246 311 l 266 336 l 256 356 l 246 373 q 218 424 172 488 l 152 517 l 136 538 l 100 584 l 66 632 q 60 641 52 648 q 44 655 31 663 q 10 676 -14 680 z"},"*":{"x_min":0,"x_max":435,"ha":435,"o":"m 29 552 q 53 599 68 648 l 76 681 l 192 599 l 156 737 q 189 734 221 734 q 254 734 286 737 l 246 597 l 368 680 q 377 614 406 555 l 270 538 l 374 451 l 343 438 q 319 425 300 410 q 282 396 265 376 l 215 501 l 160 376 q 118 423 60 457 l 163 542 z"},"Y":{"x_min":0,"x_max":743,"ha":743,"o":"m -29 683 l -8 737 q 67 708 175 708 q 237 708 315 731 l 347 741 l 381 700 q 342 677 342 630 q 342 603 357 570 l 369 543 l 382 518 l 407 469 l 408 466 q 416 452 426 436 q 436 420 451 399 q 462 412 472 428 q 482 443 488 457 q 509 503 516 526 q 524 550 527 571 q 527 579 528 588 q 529 597 529 601 q 529 632 518 651 q 507 670 479 690 l 465 698 l 490 739 l 533 729 q 579 721 621 721 q 686 721 749 739 l 765 696 q 722 667 694 637 q 667 607 618 534 l 585 479 q 557 428 542 394 q 527 361 519 331 q 501 265 501 213 q 501 186 506 162 q 510 138 520 117 q 536 79 552 62 q 568 45 594 37 l 566 -17 q 534 -6 502 0 q 471 7 428 12 q 419 13 397 14 q 375 15 346 15 q 329 15 321 15 q 277 15 244 8 q 212 1 172 -15 l 159 42 l 181 55 q 219 83 235 114 q 251 146 251 201 l 249 248 q 249 286 240 314 q 231 342 211 376 l 200 394 l 180 424 l 150 471 q 113 529 84 565 l 47 609 l 18 644 l 13 649 q 5 657 -5 665 q -19 677 -29 683 z"},"c":{"x_min":0,"x_max":646,"ha":646,"o":"m 599 532 l 598 503 q 598 484 596 474 q 595 464 590 443 q 578 391 556 368 q 533 346 494 346 q 484 346 479 347 q 448 347 421 375 q 394 403 361 474 q 357 483 332 490 q 327 492 317 492 q 297 492 282 472 q 268 451 258 403 l 250 350 q 248 337 247 317 q 246 297 246 278 q 246 235 249 217 q 262 107 279 74 q 296 42 341 38 q 381 38 406 60 q 432 82 436 127 q 440 161 411 205 l 398 222 q 424 244 457 251 q 471 253 477 254 q 483 255 488 255 q 523 255 552 239 q 580 223 598 193 q 617 163 617 132 q 617 94 587 53 q 573 33 548 20 q 524 6 476 -6 l 444 -13 q 424 -17 406 -18 q 389 -19 343 -19 q 288 -14 260 -8 q 231 -1 204 11 q 128 44 88 90 q 48 136 34 207 q 28 234 28 263 q 28 300 39 341 q 46 370 62 403 q 96 469 146 503 q 196 537 276 546 q 305 549 323 549 q 338 549 354 546 q 370 544 399 538 l 418 533 l 457 523 l 480 518 q 493 516 506 514 q 518 513 533 513 q 573 513 599 532 z"},"!":{"x_min":0,"x_max":377,"ha":377,"o":"m 207 250 l 158 251 l 160 273 q 160 316 152 341 q 143 366 110 418 l 90 458 l 75 491 l 71 500 q 68 507 63 524 q 58 542 58 561 q 58 608 62 630 q 66 651 81 674 q 100 704 127 720 q 154 736 185 736 q 217 736 250 718 q 282 699 300 665 q 319 631 319 584 q 319 565 318 555 q 317 545 312 522 q 307 498 293 472 q 279 445 241 391 q 227 372 216 340 q 206 308 206 267 z m 70 87 q 69 95 69 99 q 69 117 80 146 q 92 176 120 194 q 147 212 180 212 q 195 212 210 208 q 226 204 240 195 q 280 172 289 130 q 293 114 293 96 q 293 59 272 32 q 252 4 214 -9 q 196 -15 178 -15 q 144 -15 116 5 q 89 25 75 61 z"},"/":{"x_min":0,"x_max":353,"ha":353,"o":"m 29 -15 q 59 108 90 241 q 122 374 147 485 q 172 596 203 737 q 234 730 269 730 q 297 730 324 736 q 251 456 189 179 l 148 -16 l 117 -8 q 110 -7 101 -6 q 92 -6 88 -6 q 58 -6 29 -15 z"},"6":{"x_min":0,"x_max":745,"ha":745,"o":"m 438 514 q 459 537 464 568 q 465 573 465 584 q 465 623 440 648 q 415 673 377 673 q 368 673 363 672 q 322 666 302 636 q 282 606 274 534 q 270 503 270 438 l 271 404 l 301 423 q 370 462 452 462 q 474 462 504 460 q 535 457 562 450 q 590 444 612 432 q 663 404 692 356 q 721 308 721 250 q 721 208 704 162 q 686 117 650 82 q 615 46 557 19 q 522 3 478 -7 q 434 -17 388 -17 q 324 -17 276 -5 q 227 7 177 38 q 164 47 154 54 q 144 61 134 70 q 96 104 74 139 q 53 174 35 233 q 21 281 21 332 q 21 349 21 367 q 24 383 26 396 q 27 410 30 428 q 34 446 41 467 q 79 591 172 660 q 228 701 298 718 q 367 736 455 736 q 469 736 483 734 q 497 732 526 726 q 554 720 572 714 q 589 708 606 699 q 641 681 660 652 q 678 624 678 593 q 678 544 636 509 q 620 495 596 488 q 572 481 535 481 q 476 481 438 514 z m 336 60 q 356 46 382 46 q 421 46 446 76 q 472 105 479 165 q 480 169 480 180 q 480 192 480 200 q 480 208 480 213 q 480 295 454 334 q 428 373 383 373 q 377 373 363 371 q 324 365 304 330 q 283 295 283 225 l 284 196 l 286 180 q 293 119 303 96 q 313 74 336 60 z"},"r":{"x_min":0,"x_max":508,"ha":508,"o":"m 14 23 q 46 59 58 98 q 71 138 71 220 q 71 236 70 254 q 70 272 70 292 q 70 300 70 304 q 70 395 56 440 q 43 484 14 515 l 32 548 l 54 541 q 102 528 134 528 q 158 528 206 536 q 284 549 314 549 q 357 549 384 544 q 410 539 429 527 q 472 501 490 473 q 508 445 508 401 q 508 371 498 346 q 488 322 461 293 q 434 264 434 243 q 434 229 448 213 q 428 201 406 201 q 380 201 356 216 q 332 230 317 261 q 302 292 302 314 q 302 352 349 415 q 355 423 358 445 l 358 460 q 358 479 342 493 q 332 503 317 503 q 297 503 284 488 q 272 472 267 457 q 262 442 256 405 l 253 378 q 251 359 250 331 q 249 303 249 292 q 249 170 266 113 q 283 56 325 13 l 294 -15 q 266 -5 236 0 q 205 6 174 6 q 106 6 83 2 q 60 -1 33 -16 z"},"2":{"x_min":0,"x_max":747,"ha":747,"o":"m 126 80 l 180 106 l 208 121 l 230 133 q 241 139 252 143 q 262 147 281 152 l 307 157 q 335 162 367 162 q 382 162 398 162 q 412 159 418 158 l 439 153 l 483 146 q 502 146 514 158 q 525 171 522 187 q 521 197 514 207 q 499 228 473 228 q 467 228 464 227 q 484 254 514 268 q 543 283 577 283 q 583 283 589 283 q 597 281 600 281 q 687 263 698 178 q 701 161 701 145 q 701 -14 428 -14 l 408 -12 l 404 -11 l 343 0 q 288 11 250 11 q 180 11 143 4 q 106 -2 68 -23 l 42 16 q 64 92 110 160 q 157 228 251 321 l 287 356 q 360 425 384 454 q 409 484 418 514 q 427 544 427 569 q 427 581 426 587 q 421 624 394 648 q 366 671 329 671 q 311 671 297 666 q 264 656 244 624 q 224 593 224 549 q 224 517 236 483 q 248 449 275 428 q 234 399 182 399 q 162 399 139 405 q 94 417 65 444 q 36 471 26 509 q 23 518 22 528 q 21 537 21 548 q 21 614 98 670 q 125 691 164 704 q 203 718 263 728 q 323 739 353 739 q 371 739 414 734 q 456 730 486 724 q 515 717 543 705 q 607 677 634 648 q 662 619 674 568 q 680 544 680 520 q 680 452 628 397 q 572 338 451 289 l 401 268 l 377 259 q 365 254 346 245 q 327 236 305 224 l 275 206 q 227 177 191 146 q 155 115 126 80 z"},"9":{"x_min":0,"x_max":745,"ha":745,"o":"m 305 207 q 284 184 279 152 q 278 147 278 136 q 278 97 304 72 q 329 48 366 48 q 375 48 380 49 q 421 55 441 85 q 461 115 469 187 q 471 215 472 229 q 473 243 473 282 l 472 317 l 442 298 q 373 259 291 259 q 277 259 270 259 q 262 260 258 260 q 210 260 185 266 q 160 273 131 288 q 80 316 51 364 q 22 412 22 471 q 22 513 40 558 q 57 604 92 638 q 127 673 186 701 q 221 718 264 728 q 307 738 354 738 q 421 738 468 726 q 514 714 565 682 q 581 673 588 668 q 602 656 609 651 q 647 617 668 582 q 690 546 708 487 q 722 440 722 388 q 722 370 722 353 q 719 337 718 323 q 716 309 713 296 q 710 283 702 254 q 681 186 651 142 q 621 99 568 60 q 515 20 446 2 q 376 -15 287 -15 q 265 -15 248 -12 q 224 -6 213 -4 q 189 1 172 7 q 154 13 137 22 q 102 40 84 68 q 65 97 65 128 q 65 177 107 212 q 123 226 147 233 q 171 240 208 240 q 267 240 305 207 z m 380 349 q 419 356 440 391 q 460 426 460 497 l 457 542 q 449 602 440 624 q 430 647 409 660 q 388 674 361 674 q 322 674 296 645 q 271 616 264 557 l 263 534 l 263 509 q 263 426 289 386 q 315 347 361 347 q 366 347 380 349 z"}," ":{"x_min":0,"x_max":290,"ha":290,"o":""},"I":{"x_min":0,"x_max":419,"ha":419,"o":"m 0 31 q 48 66 72 122 q 95 178 95 274 l 96 315 l 98 356 q 98 518 79 588 q 60 657 11 688 l 31 735 l 64 726 q 130 711 195 711 q 264 711 350 729 l 383 736 l 404 690 q 367 662 352 625 q 336 588 329 514 l 327 478 l 325 437 l 324 418 l 324 398 l 324 357 l 325 315 l 325 297 l 329 238 q 329 199 332 182 q 338 161 340 152 q 360 74 412 34 l 394 -14 q 308 20 210 20 l 173 19 q 140 19 105 11 q 70 3 31 -11 z"},"H":{"x_min":0,"x_max":841,"ha":841,"o":"m 14 23 l 29 40 q 71 95 85 184 l 88 206 l 89 222 l 92 275 l 92 398 q 92 415 92 422 q 92 457 89 483 q 77 575 63 613 q 49 651 14 688 l 42 737 q 72 723 109 717 q 146 711 190 711 l 224 713 l 254 715 q 327 721 375 736 l 399 694 q 366 679 350 650 q 335 622 325 554 q 323 541 322 522 q 321 503 321 485 q 321 474 322 460 q 323 447 323 440 l 331 450 q 350 472 360 482 q 370 491 382 500 q 393 508 408 508 q 440 508 452 468 q 456 458 458 451 q 461 444 466 436 q 471 427 484 427 q 489 427 494 430 q 505 437 512 452 q 518 466 518 494 l 519 529 l 519 542 q 519 647 448 696 l 469 739 q 486 732 500 729 q 514 726 558 721 l 618 714 q 628 714 643 715 q 658 716 680 719 l 738 729 l 781 736 l 800 739 l 831 695 q 796 676 778 644 q 761 613 748 538 q 743 508 743 418 l 743 348 l 750 239 q 759 160 773 124 q 787 87 823 49 l 833 39 l 841 32 l 788 -16 q 764 5 740 12 q 715 18 648 18 q 635 18 616 17 q 598 16 577 13 q 525 5 475 -15 l 446 25 q 487 55 506 112 q 524 169 524 273 q 524 286 523 294 q 522 302 517 319 q 509 306 500 296 q 491 287 479 277 q 456 259 438 259 q 414 259 397 297 q 390 312 386 316 q 378 328 362 328 q 348 328 339 316 q 330 305 326 292 q 322 278 322 257 q 323 249 323 244 l 331 171 q 337 126 348 101 q 359 76 385 46 l 398 31 l 368 -19 q 336 -3 306 6 q 276 15 242 15 q 169 15 128 10 q 86 4 50 -15 z"},"4":{"x_min":0,"x_max":745,"ha":745,"o":"m -8 283 q 16 305 26 318 q 31 324 80 391 l 81 394 l 128 451 l 177 513 l 204 547 l 224 574 l 236 592 q 255 623 255 646 q 255 672 229 704 l 219 715 l 255 739 l 317 731 l 355 725 l 384 720 q 397 718 415 718 q 433 717 452 717 q 496 717 522 721 q 547 725 579 738 l 626 685 q 605 667 596 644 q 587 622 577 562 q 576 557 573 532 q 570 508 570 485 l 570 458 l 569 424 l 569 388 l 569 368 l 570 353 l 570 335 q 585 317 609 317 q 630 317 658 328 q 685 340 701 369 q 703 362 706 348 q 709 334 709 327 q 710 319 710 313 q 710 306 710 300 q 710 265 696 242 q 674 208 654 194 q 633 179 611 176 q 589 174 589 145 q 589 128 599 107 q 625 60 664 40 l 639 -15 q 604 -2 568 6 q 532 13 488 13 l 427 13 q 381 13 350 6 q 318 0 276 -15 l 249 32 q 288 50 310 88 q 333 125 333 172 l 332 190 l 304 199 q 218 222 171 222 q 158 222 150 221 q 142 220 128 217 l 123 215 l 95 205 l 64 193 q 45 212 26 236 q 7 259 -8 283 z m 138 302 l 173 316 q 196 325 218 330 q 241 334 278 337 l 325 342 l 334 343 l 336 374 q 336 397 336 419 q 336 441 337 463 q 337 497 334 529 l 327 579 l 280 514 l 261 490 l 235 457 l 190 402 l 169 375 l 145 345 l 123 316 l 101 288 l 126 297 z"},"D":{"x_min":0,"x_max":820,"ha":820,"o":"m 14 702 l 40 736 q 69 722 101 714 q 133 706 179 706 q 230 706 273 713 q 316 720 388 743 q 392 744 395 744 q 404 745 422 745 q 436 745 446 745 q 488 745 535 734 q 582 722 610 707 q 637 692 677 654 l 705 624 q 771 543 787 435 q 791 404 792 392 q 792 381 792 369 q 792 329 784 287 q 768 207 730 150 q 676 66 608 27 q 539 -12 439 -12 q 357 -12 236 14 q 203 20 175 20 q 133 20 101 8 q 88 4 81 0 q 74 -4 59 -14 l 17 27 q 39 54 56 88 q 72 123 82 165 q 88 189 90 210 q 93 232 93 265 l 94 305 l 94 336 l 94 372 l 94 407 q 94 450 92 474 q 91 498 86 529 q 75 606 61 640 q 47 674 14 702 z m 321 250 q 321 223 322 204 q 323 186 327 163 q 338 101 359 75 q 380 49 418 49 q 456 49 484 80 q 511 110 522 177 l 530 226 l 531 237 q 534 261 534 269 q 535 277 535 299 l 535 362 l 533 404 l 532 424 l 531 462 l 530 476 q 526 517 522 544 q 517 571 514 583 q 501 629 488 648 q 476 666 455 674 q 434 681 416 681 q 356 681 332 588 q 330 579 328 570 q 323 545 323 521 l 321 490 l 319 453 l 317 405 l 317 386 l 318 318 z"},"0":{"x_min":0,"x_max":746,"ha":746,"o":"m 17 358 q 17 421 30 470 q 64 600 150 670 q 237 740 359 740 q 374 740 393 738 q 412 736 433 733 q 472 726 504 714 q 535 703 559 687 q 608 654 640 614 q 672 574 699 507 q 703 496 708 482 q 712 469 718 445 q 727 397 727 353 q 727 276 701 215 q 668 133 614 80 q 560 27 485 2 q 432 -16 373 -16 q 361 -16 349 -16 q 338 -14 334 -14 q 293 -9 261 2 q 149 38 83 132 q 17 227 17 358 z m 273 211 q 281 143 288 118 q 296 94 312 79 q 339 53 373 53 q 419 53 444 101 q 448 108 452 119 q 457 130 462 155 l 471 209 l 474 236 l 475 260 l 478 292 l 480 328 l 480 349 l 480 415 l 480 434 l 478 481 q 478 508 475 529 q 472 550 462 588 q 453 626 428 649 q 402 672 370 672 q 347 672 327 660 q 307 648 298 626 q 289 604 275 524 q 269 496 268 472 q 266 447 266 403 l 266 371 l 267 302 z"},"F":{"x_min":0,"x_max":743,"ha":743,"o":"m -7 38 q 42 63 66 111 q 91 159 91 245 l 94 302 l 95 329 l 95 357 l 95 384 l 95 412 l 95 437 l 94 469 q 94 499 92 514 q 91 528 86 553 q 76 604 64 628 q 53 653 22 687 l 9 700 l 41 739 q 69 726 94 720 q 120 714 156 714 q 190 714 243 720 q 269 722 377 741 l 437 753 q 441 754 451 754 q 457 754 471 754 q 485 753 506 753 q 536 753 556 748 q 577 744 601 734 q 658 712 684 686 q 711 661 721 622 l 724 605 q 679 597 640 582 q 602 568 545 536 l 515 518 l 515 547 q 515 562 512 574 q 510 587 504 603 q 475 684 419 684 q 404 684 380 674 q 356 665 342 636 q 327 608 320 548 l 316 506 l 312 453 q 312 433 318 404 l 336 425 q 370 461 398 476 q 425 491 458 491 q 498 491 551 468 q 604 446 644 446 q 693 446 734 486 q 737 474 739 465 q 741 456 741 450 q 741 442 742 433 q 743 424 743 419 q 743 356 714 318 q 684 279 632 269 q 617 266 604 266 q 574 266 546 282 q 519 299 465 349 l 443 364 q 414 377 393 377 q 325 377 325 270 l 324 239 q 324 170 340 130 q 356 90 396 56 l 417 40 l 400 -16 q 363 5 330 14 q 298 23 240 23 l 190 24 q 124 24 92 16 q 59 7 25 -17 z"},"`":{"x_min":0,"x_max":314,"ha":314,"o":"m 0 650 l 76 747 l 100 721 q 139 682 182 662 q 224 641 296 628 l 314 625 l 304 579 l 286 578 q 200 578 158 586 q 101 597 28 634 z"},"k":{"x_min":0,"x_max":697,"ha":697,"o":"m 0 703 l 23 738 q 50 726 77 722 q 104 718 163 718 q 207 718 263 730 l 289 737 l 309 709 l 294 689 q 272 656 264 623 q 255 590 255 529 l 255 509 l 256 453 l 258 387 l 281 416 q 334 478 380 504 q 427 530 485 530 q 575 530 613 506 q 660 476 660 427 q 660 394 634 366 q 607 339 559 339 q 518 339 497 361 q 515 375 515 396 q 515 413 504 425 q 487 444 450 444 q 428 444 401 435 q 365 421 338 390 q 353 375 373 364 q 393 352 418 345 l 449 337 l 468 332 l 503 324 l 526 319 q 526 249 553 184 q 580 120 648 41 l 668 17 l 654 -18 q 622 -7 588 -2 q 554 3 507 3 q 466 3 428 -4 q 421 -5 408 -8 q 395 -11 374 -17 l 350 12 q 383 39 383 79 q 383 122 344 197 q 322 239 287 281 q 256 234 256 186 q 256 73 320 16 l 305 -17 q 266 -7 242 -4 q 217 0 190 1 q 164 2 161 2 q 110 2 49 -11 l 29 -16 l 4 16 q 29 34 42 62 q 54 90 62 145 l 72 217 l 72 221 q 74 235 74 262 q 74 290 75 308 l 75 385 l 72 425 l 71 449 l 68 490 l 66 515 l 62 546 q 52 613 39 646 q 26 678 0 703 z"},"u":{"x_min":0,"x_max":650,"ha":650,"o":"m 49 552 q 66 541 79 536 q 92 532 109 532 q 128 532 179 540 q 196 540 213 541 q 269 541 305 499 q 341 457 341 388 q 341 354 334 323 q 327 292 308 252 q 303 239 296 224 q 288 210 281 198 l 252 149 l 250 146 q 245 133 245 118 q 245 112 247 98 q 255 40 305 40 q 315 40 328 45 q 351 55 364 75 q 376 95 387 144 q 389 152 392 172 q 394 192 394 220 q 394 244 394 256 q 394 275 394 284 q 394 314 394 350 q 393 386 382 420 q 372 455 362 476 q 352 497 333 518 l 354 549 q 383 536 412 533 q 441 530 512 530 q 544 530 565 534 q 586 539 618 551 l 635 521 q 609 498 598 469 q 588 440 581 372 l 580 351 l 579 343 l 578 284 q 578 176 586 132 q 595 89 604 64 q 614 40 632 20 l 608 -16 q 598 -10 588 -6 q 579 -2 556 4 q 534 11 510 11 q 497 11 474 8 q 452 5 418 0 l 393 -4 q 310 -15 259 -15 q 186 -15 142 4 q 98 23 69 64 q 34 114 34 166 q 34 192 42 222 q 51 253 72 279 q 92 305 138 340 q 143 345 151 351 q 159 357 165 361 l 194 385 q 219 406 230 424 q 242 442 242 457 q 242 467 236 475 q 229 483 221 483 q 218 483 212 481 q 200 475 191 466 l 189 464 l 169 436 q 146 404 116 404 q 87 404 68 435 q 42 477 42 514 q 42 537 49 552 z"},"U":{"x_min":0,"x_max":777,"ha":777,"o":"m 0 687 l 29 737 q 60 726 80 722 q 101 719 161 713 l 220 709 l 229 708 l 283 711 q 343 716 395 737 l 416 692 l 392 676 q 353 643 342 608 q 330 574 316 454 l 311 388 l 310 312 q 310 239 316 202 q 322 164 332 141 q 349 100 382 76 q 414 53 451 53 q 459 53 473 55 q 508 61 532 80 q 555 100 575 141 l 582 157 l 584 162 l 589 184 l 595 215 l 597 225 l 601 265 l 602 274 l 605 298 l 605 408 l 603 463 l 602 480 q 602 504 597 526 q 592 549 583 575 q 563 627 550 644 q 536 660 493 683 l 482 689 l 503 736 l 516 732 l 526 729 q 566 719 642 719 q 694 719 748 738 l 777 693 l 768 689 q 744 675 732 657 q 719 639 703 593 q 700 584 696 562 q 693 541 690 509 l 685 455 l 683 436 q 683 426 683 421 q 683 413 683 409 q 683 389 682 371 q 682 353 682 336 q 682 263 693 230 q 701 205 734 161 l 745 146 q 724 113 698 88 q 673 64 633 40 l 584 16 q 530 -7 490 -14 q 451 -20 387 -20 q 358 -20 328 -16 q 297 -11 258 -1 q 201 14 174 25 q 148 36 114 61 q 79 86 66 99 q 50 115 36 137 q 66 177 78 262 q 89 346 89 504 q 87 528 84 545 q 82 562 78 578 q 66 629 48 654 q 29 678 0 687 z"},"o":{"x_min":0,"x_max":654,"ha":654,"o":"m 29 280 q 29 320 40 352 q 51 383 74 420 q 114 483 178 517 q 241 551 321 551 q 363 551 404 541 q 493 520 551 456 q 591 413 608 364 q 624 314 624 247 q 624 229 619 208 q 614 186 606 163 q 574 82 506 32 q 439 -17 348 -17 q 266 -17 206 7 q 146 31 97 86 q 58 132 44 177 q 29 222 29 280 z m 271 80 q 293 40 329 40 q 355 40 376 63 q 388 75 396 98 q 405 122 405 155 l 408 209 l 409 234 l 409 313 l 409 324 l 404 372 l 401 395 q 395 444 385 464 q 375 484 354 493 q 334 502 318 502 q 271 502 256 434 q 252 413 250 396 q 248 378 248 352 l 244 294 l 243 289 q 243 268 243 254 q 243 241 248 193 q 252 145 257 121 q 262 97 271 80 z"},"N":{"x_min":0,"x_max":771,"ha":771,"o":"m 0 695 l 18 737 l 37 734 l 57 730 l 77 726 l 103 722 l 141 717 q 189 712 217 712 q 252 712 282 718 q 313 724 343 736 l 365 689 q 357 685 350 676 q 333 656 333 634 q 333 597 380 556 l 411 530 l 429 514 l 479 472 l 519 440 l 523 435 q 543 417 556 396 q 569 374 589 326 l 599 302 l 600 340 q 600 507 576 583 q 551 659 491 695 l 508 737 q 559 719 615 719 q 653 719 712 728 l 754 736 l 778 694 q 720 672 696 607 q 669 534 669 375 l 670 319 l 670 291 l 671 265 q 671 247 673 226 q 675 206 677 192 q 689 115 704 86 q 719 58 752 47 l 723 -16 q 701 -2 669 2 q 637 7 577 7 q 543 7 516 1 q 488 -5 453 -18 l 429 30 l 440 36 q 488 66 488 96 q 488 118 465 150 q 456 161 446 170 q 437 180 409 202 l 396 213 l 354 247 q 281 307 240 358 q 198 408 176 464 q 171 436 169 408 q 167 379 167 343 l 168 309 l 168 281 l 170 255 q 170 214 175 189 q 180 164 191 140 q 211 92 232 70 q 254 49 287 41 l 274 -17 l 255 -11 q 221 -1 200 4 q 178 9 162 9 q 150 9 136 7 q 122 5 112 4 l 73 -2 l 67 -3 q 52 -6 47 -8 q 39 -10 23 -17 l 2 44 q 36 61 56 90 q 76 120 83 167 l 87 195 l 89 217 l 95 276 l 95 283 l 95 334 q 95 405 94 427 q 93 449 88 483 q 75 578 56 622 q 38 665 0 695 z"},"G":{"x_min":0,"x_max":841,"ha":841,"o":"m 734 728 q 746 695 746 660 q 746 653 746 647 q 744 638 744 634 q 738 591 719 562 q 700 533 670 518 q 640 504 614 504 q 583 504 541 524 q 509 540 488 563 q 466 586 425 651 q 410 674 377 674 q 369 674 354 672 q 338 670 320 640 q 301 609 292 543 l 289 512 l 287 494 q 287 484 287 478 q 287 469 287 464 q 287 455 287 451 q 287 443 287 439 q 287 431 287 428 q 287 409 286 389 q 286 369 286 348 q 286 339 286 335 q 286 279 290 250 q 293 222 299 195 q 311 137 322 112 q 334 87 360 66 q 386 44 418 44 q 444 44 468 60 q 491 77 504 107 q 511 122 516 142 q 520 163 520 194 q 520 248 512 278 q 503 309 474 343 l 451 365 l 466 405 l 549 394 l 619 385 l 624 385 q 633 384 650 384 q 676 384 711 389 q 746 394 787 409 l 809 369 q 778 334 766 290 q 753 246 753 175 q 753 153 760 130 q 766 108 778 84 q 791 59 811 36 l 778 -16 q 756 1 728 10 q 700 18 665 18 q 628 18 574 9 l 559 6 l 495 -6 q 459 -12 432 -14 q 406 -17 380 -17 q 244 -17 142 77 q 80 134 54 199 q 29 264 29 360 q 29 399 34 428 q 38 458 48 488 q 70 550 87 577 q 104 604 149 649 q 176 678 228 702 q 248 712 275 720 q 343 738 375 738 q 398 738 438 730 l 504 713 q 518 709 553 706 q 588 702 627 702 q 688 702 734 728 z"},"q":{"x_min":0,"x_max":688,"ha":688,"o":"m 662 555 l 685 529 q 659 504 648 476 q 636 449 625 381 l 622 363 l 621 347 l 617 306 q 617 264 614 216 q 610 168 610 163 q 610 83 614 39 q 618 -5 627 -40 q 641 -94 654 -120 q 666 -145 687 -165 l 660 -204 q 601 -178 520 -178 q 467 -178 436 -184 q 406 -189 376 -205 l 357 -172 q 382 -150 398 -120 q 413 -89 420 -42 q 423 -22 423 -3 q 423 3 423 9 q 421 17 421 21 q 371 -3 319 -7 q 311 -8 304 -8 q 296 -9 286 -9 q 236 -9 193 8 q 123 35 87 80 q 51 126 35 206 q 31 227 29 243 q 27 259 27 279 q 27 373 93 453 q 128 496 190 524 q 226 540 264 546 q 303 551 327 551 q 351 551 361 550 q 371 549 403 543 l 435 538 l 499 532 q 555 532 588 534 q 620 536 662 555 z m 413 326 l 411 383 l 409 402 q 401 461 381 479 q 361 497 334 497 q 292 497 275 453 q 269 436 265 418 q 261 399 253 346 q 249 315 249 260 q 249 250 249 245 q 249 186 253 160 q 257 134 266 114 q 290 57 332 57 q 348 57 368 70 q 387 84 394 102 q 397 111 397 119 q 397 155 363 160 q 360 161 353 161 q 346 161 334 159 q 315 153 307 143 q 304 152 302 162 q 301 171 301 182 q 301 232 333 264 q 365 296 412 296 l 413 312 z"},"d":{"x_min":0,"x_max":687,"ha":687,"o":"m 319 547 l 283 591 l 273 603 l 246 633 q 221 661 202 679 q 182 697 162 710 l 180 744 q 249 726 322 726 q 381 726 409 729 q 437 732 472 742 l 490 705 q 472 691 472 673 q 472 653 492 621 q 513 589 560 536 q 575 520 595 502 q 615 484 640 467 q 622 427 617 377 l 616 358 l 615 331 q 615 303 614 278 q 614 253 614 231 q 614 210 616 192 q 625 104 636 78 q 647 51 682 40 l 640 -16 q 623 -3 607 1 q 591 5 557 5 q 536 5 516 4 q 497 4 480 4 l 461 2 l 451 1 l 387 -8 q 344 -15 305 -15 q 257 -15 215 0 q 140 26 99 71 q 58 116 36 203 q 32 217 30 237 q 28 257 28 273 q 28 379 92 448 q 155 518 277 541 z m 278 95 q 304 49 342 49 q 353 49 370 53 q 387 57 400 76 q 412 94 415 120 q 418 145 417 154 l 416 220 l 416 297 l 416 333 l 415 388 q 415 411 414 421 q 413 431 411 443 q 406 466 390 479 q 374 492 352 492 q 339 492 325 486 q 311 481 295 462 q 279 442 268 409 q 263 393 260 378 q 258 363 258 331 l 256 295 l 255 274 l 255 218 l 257 198 q 261 150 266 130 q 270 110 278 95 z"},"1":{"x_min":0,"x_max":745,"ha":745,"o":"m 240 725 q 233 716 228 701 q 227 697 227 690 q 227 672 239 660 q 251 648 269 648 q 288 649 307 651 q 335 656 357 660 q 379 664 408 676 q 436 689 478 714 l 506 733 l 546 692 q 525 649 518 620 q 507 577 507 505 l 505 472 l 505 464 l 504 385 l 503 359 l 501 300 l 501 279 q 501 151 521 100 q 541 50 591 32 l 556 -15 q 512 0 474 7 q 437 14 389 14 q 327 14 292 8 q 256 3 221 -14 l 193 32 q 234 63 255 112 q 276 162 276 239 l 276 247 l 276 298 l 276 310 l 277 358 l 276 423 l 275 444 l 273 492 l 273 512 l 272 558 l 254 550 q 235 542 216 538 q 196 533 180 533 q 110 533 92 606 q 89 618 89 631 q 89 644 92 656 q 116 737 189 737 q 204 737 216 734 q 228 732 240 725 z"},"5":{"x_min":0,"x_max":747,"ha":747,"o":"m 299 241 q 284 229 271 213 l 257 189 q 246 164 246 142 q 246 107 266 80 q 287 53 320 45 q 335 42 348 42 q 385 42 409 73 q 433 104 446 172 q 450 195 450 233 q 450 325 418 372 q 385 419 330 419 q 316 419 309 417 q 302 415 298 415 q 270 409 252 396 q 234 382 208 346 l 196 328 l 157 336 l 153 336 l 117 340 q 108 341 97 342 q 86 344 73 347 l 81 375 q 115 492 115 571 q 115 643 86 709 l 112 733 q 127 725 142 720 q 158 714 181 710 q 204 705 230 705 q 250 705 266 707 q 283 709 314 716 l 340 721 l 374 729 q 390 733 418 735 q 446 737 461 737 q 502 733 529 725 q 556 717 580 703 q 644 663 669 586 l 674 569 l 654 575 q 637 580 620 583 q 603 586 587 586 q 566 586 548 582 q 530 578 510 573 l 500 570 l 453 554 q 414 540 374 540 q 353 540 343 541 q 333 542 307 548 q 295 550 288 552 q 281 555 249 569 l 217 582 l 208 586 l 198 537 l 195 520 l 190 488 q 187 469 184 456 q 177 436 174 424 l 184 434 q 219 465 249 478 q 279 492 334 499 q 360 502 387 502 q 399 502 405 502 q 423 502 438 500 q 453 497 476 491 q 556 472 602 438 q 647 405 675 345 q 686 318 692 291 q 698 264 698 239 q 698 185 666 127 q 634 69 576 34 q 518 -2 424 -14 q 417 -15 398 -16 q 380 -17 351 -17 q 209 -17 124 39 q 49 88 49 156 q 49 202 62 231 q 74 260 102 277 q 130 294 182 294 q 226 294 278 258 z"}}}
